<?xml version="1.0" encoding="UTF-8" standalone="no"?>
<!-- Created with Inkscape (http://www.inkscape.org/) -->

<svg
   version="1.1"
   id="svg1"
   width="2560"
   height="1706.6667"
   viewBox="0 0 2560 1706.6667"
   sodipodi:docname="logo.eps"
   xmlns:inkscape="http://www.inkscape.org/namespaces/inkscape"
   xmlns:sodipodi="http://sodipodi.sourceforge.net/DTD/sodipodi-0.dtd"
   xmlns="http://www.w3.org/2000/svg"
   xmlns:svg="http://www.w3.org/2000/svg">
  <defs
     id="defs1">
    <linearGradient
       x1="0"
       y1="0"
       x2="1"
       y2="0"
       gradientUnits="userSpaceOnUse"
       gradientTransform="matrix(2034.1,-400.452,-400.452,-2034.1,8272.4,9553.41)"
       spreadMethod="pad"
       id="linearGradient104">
      <stop
         style="stop-opacity:1;stop-color:#1fe7fc"
         offset="0"
         id="stop103" />
      <stop
         style="stop-opacity:1;stop-color:#00aaff"
         offset="1"
         id="stop104" />
    </linearGradient>
    <clipPath
       clipPathUnits="userSpaceOnUse"
       id="clipPath104">
      <path
         d="m 10378.3,9517.63 c 0,0 -572.14,128.36 -1280.19,-18.38 0,0 -752.02,-210.39 -897.53,-310.66 0,0 694.1,155.77 970.65,139.05 0,0 244.35,27.36 581.63,-64.19 0,0 -114.57,72.86 -423.27,117.91 0,0 365.64,132.4 1048.71,136.27 z"
         transform="translate(0,2.5000001e-4)"
         id="path104" />
    </clipPath>
    <linearGradient
       x1="0"
       y1="0"
       x2="1"
       y2="0"
       gradientUnits="userSpaceOnUse"
       gradientTransform="matrix(883.867,-174.006,-174.006,-883.867,8265.96,9576.61)"
       spreadMethod="pad"
       id="linearGradient106">
      <stop
         style="stop-opacity:1;stop-color:#1fe7fc"
         offset="0"
         id="stop105" />
      <stop
         style="stop-opacity:1;stop-color:#00aaff"
         offset="1"
         id="stop106" />
    </linearGradient>
    <clipPath
       clipPathUnits="userSpaceOnUse"
       id="clipPath106">
      <path
         d="m 8193.26,9207.32 c 0,0 345.77,302.95 523.98,393.64 178.21,90.69 352.3,144.45 505.29,170.93 0,0 -549.88,-229.75 -697.13,-354.83 0,0 -288.04,-185.4 -332.14,-209.74 z"
         transform="translate(0,2.5000001e-4)"
         id="path106" />
    </clipPath>
    <linearGradient
       x1="0"
       y1="0"
       x2="1"
       y2="0"
       gradientUnits="userSpaceOnUse"
       gradientTransform="matrix(1029.16,-202.61,-202.61,-1029.16,8241.39,9284.08)"
       spreadMethod="pad"
       id="linearGradient108">
      <stop
         style="stop-opacity:1;stop-color:#1fe7fc"
         offset="0"
         id="stop107" />
      <stop
         style="stop-opacity:1;stop-color:#00aaff"
         offset="1"
         id="stop108" />
    </linearGradient>
    <clipPath
       clipPathUnits="userSpaceOnUse"
       id="clipPath108">
      <path
         d="m 9287.28,9166.45 c 0,0 -352.37,78.8 -1065.51,17.97 0,0 648.15,145.95 1065.51,-17.97 z"
         transform="translate(0,2.5000001e-4)"
         id="path108" />
    </clipPath>
    <linearGradient
       x1="0"
       y1="0"
       x2="1"
       y2="0"
       gradientUnits="userSpaceOnUse"
       gradientTransform="matrix(1065.48,-209.761,-209.761,-1065.48,8810,9744.7)"
       spreadMethod="pad"
       id="linearGradient110">
      <stop
         style="stop-opacity:1;stop-color:#1fe7fc"
         offset="0"
         id="stop109" />
      <stop
         style="stop-opacity:1;stop-color:#00aaff"
         offset="1"
         id="stop110" />
    </linearGradient>
    <clipPath
       clipPathUnits="userSpaceOnUse"
       id="clipPath110">
      <path
         d="m 9921.35,9767.94 c 0,0 -314.85,77.71 -771.66,-118.49 0,0 -282.82,-110.96 -385.59,-137.89 0,0 362.21,67.04 548.36,134.15 186.14,67.11 519.42,98.97 608.89,122.23 z"
         transform="translate(0,2.5000001e-4)"
         id="path110" />
    </clipPath>
    <linearGradient
       x1="0"
       y1="0"
       x2="1"
       y2="0"
       gradientUnits="userSpaceOnUse"
       gradientTransform="matrix(196.655,-38.7153,-38.7153,-196.655,9990.92,9785.92)"
       spreadMethod="pad"
       id="linearGradient112">
      <stop
         style="stop-opacity:1;stop-color:#1fe7fc"
         offset="0"
         id="stop111" />
      <stop
         style="stop-opacity:1;stop-color:#00aaff"
         offset="1"
         id="stop112" />
    </linearGradient>
    <clipPath
       clipPathUnits="userSpaceOnUse"
       id="clipPath112">
      <path
         d="m 9984.92,9755.43 c 0,0 149.28,39.78 185.08,29.6 35.7,-10.18 18.9,-63.47 -21.6,-61.78 -40.6,1.69 -163.48,32.18 -163.48,32.18 z"
         transform="translate(0,2.5000001e-4)"
         id="path112" />
    </clipPath>
    <linearGradient
       x1="0"
       y1="0"
       x2="1"
       y2="0"
       gradientUnits="userSpaceOnUse"
       gradientTransform="matrix(153.306,-30.1812,-30.1812,-153.306,10371.4,9690.47)"
       spreadMethod="pad"
       id="linearGradient114">
      <stop
         style="stop-opacity:1;stop-color:#1fe7fc"
         offset="0"
         id="stop113" />
      <stop
         style="stop-opacity:1;stop-color:#00aaff"
         offset="1"
         id="stop114" />
    </linearGradient>
    <clipPath
       clipPathUnits="userSpaceOnUse"
       id="clipPath114">
      <path
         d="m 10375.3,9710.02 c 0,0 113.1,-0.27 143.5,-37.69 30.4,-37.42 -71.3,-42.56 -101,-2.11 -29.8,40.44 -42.5,39.8 -42.5,39.8 z"
         transform="translate(0,2.5000001e-4)"
         id="path114" />
    </clipPath>
    <linearGradient
       x1="0"
       y1="0"
       x2="1"
       y2="0"
       gradientUnits="userSpaceOnUse"
       gradientTransform="matrix(128.156,-25.23,-25.23,-128.156,10766.5,9413.15)"
       spreadMethod="pad"
       id="linearGradient116">
      <stop
         style="stop-opacity:1;stop-color:#1fe7fc"
         offset="0"
         id="stop115" />
      <stop
         style="stop-opacity:1;stop-color:#00aaff"
         offset="1"
         id="stop116" />
    </linearGradient>
    <clipPath
       clipPathUnits="userSpaceOnUse"
       id="clipPath116">
      <path
         d="m 10771.8,9440.16 c 0,0 93.2,-5.77 115.7,-51.08 22.5,-45.31 -51.3,-21.33 -64.1,-6.24 -12.8,15.09 -51.6,57.32 -51.6,57.32 z"
         transform="translate(0,2.5000001e-4)"
         id="path116" />
    </clipPath>
    <linearGradient
       x1="0"
       y1="0"
       x2="1"
       y2="0"
       gradientUnits="userSpaceOnUse"
       gradientTransform="matrix(184.278,-36.2787,-36.2787,-184.278,10415.6,9435.4)"
       spreadMethod="pad"
       id="linearGradient118">
      <stop
         style="stop-opacity:1;stop-color:#1fe7fc"
         offset="0"
         id="stop117" />
      <stop
         style="stop-opacity:1;stop-color:#00aaff"
         offset="1"
         id="stop118" />
    </linearGradient>
    <clipPath
       clipPathUnits="userSpaceOnUse"
       id="clipPath118">
      <path
         d="m 10420.8,9462.09 c 0,0 163.4,-16.44 176.8,-44.24 13.4,-27.79 -21,-58.75 -63.4,-34.67 -42.4,24.07 -113.4,78.91 -113.4,78.91 z"
         transform="translate(0,2.5000001e-4)"
         id="path118" />
    </clipPath>
    <linearGradient
       x1="0"
       y1="0"
       x2="1"
       y2="0"
       gradientUnits="userSpaceOnUse"
       gradientTransform="matrix(147.743,-29.086,-29.086,-147.743,10114.2,9438)"
       spreadMethod="pad"
       id="linearGradient120">
      <stop
         style="stop-opacity:1;stop-color:#1fe7fc"
         offset="0"
         id="stop119" />
      <stop
         style="stop-opacity:1;stop-color:#00aaff"
         offset="1"
         id="stop120" />
    </linearGradient>
    <clipPath
       clipPathUnits="userSpaceOnUse"
       id="clipPath120">
      <path
         d="m 10110,9416.39 c 0,0 96,40.82 148.1,17.99 0,0 17.7,-38.07 -18,-43.62 -35.7,-5.55 -55.7,20.4 -130.1,25.63 z"
         transform="translate(0,2.5000001e-4)"
         id="path120" />
    </clipPath>
    <linearGradient
       x1="0"
       y1="0"
       x2="1"
       y2="0"
       gradientUnits="userSpaceOnUse"
       gradientTransform="matrix(179.878,-35.4125,-35.4125,-179.878,9884.36,9292.55)"
       spreadMethod="pad"
       id="linearGradient122">
      <stop
         style="stop-opacity:1;stop-color:#1fe7fc"
         offset="0"
         id="stop121" />
      <stop
         style="stop-opacity:1;stop-color:#00aaff"
         offset="1"
         id="stop122" />
    </linearGradient>
    <clipPath
       clipPathUnits="userSpaceOnUse"
       id="clipPath122">
      <path
         d="m 9887.05,9306.2 c 0,0 152.45,7.72 172.55,-33.96 20.1,-41.69 -38,-49.12 -73.76,-23.22 -35.78,25.91 -98.79,57.18 -98.79,57.18 z"
         transform="translate(0,2.5000001e-4)"
         id="path122" />
    </clipPath>
    <linearGradient
       x1="0"
       y1="0"
       x2="1"
       y2="0"
       gradientUnits="userSpaceOnUse"
       gradientTransform="matrix(100.804,-19.8453,-19.8453,-100.804,9775.81,9172.38)"
       spreadMethod="pad"
       id="linearGradient124">
      <stop
         style="stop-opacity:1;stop-color:#1fe7fc"
         offset="0"
         id="stop123" />
      <stop
         style="stop-opacity:1;stop-color:#00aaff"
         offset="1"
         id="stop124" />
    </linearGradient>
    <clipPath
       clipPathUnits="userSpaceOnUse"
       id="clipPath124">
      <path
         d="m 9779.1,9189.11 c 0,0 113.78,-12.97 95.12,-43.88 -18.66,-30.92 -95.12,43.88 -95.12,43.88 z"
         transform="translate(0,2.5000001e-4)"
         id="path124" />
    </clipPath>
    <linearGradient
       x1="0"
       y1="0"
       x2="1"
       y2="0"
       gradientUnits="userSpaceOnUse"
       gradientTransform="matrix(168.975,-33.2659,-33.2659,-168.975,9427.26,9158.78)"
       spreadMethod="pad"
       id="linearGradient126">
      <stop
         style="stop-opacity:1;stop-color:#1fe7fc"
         offset="0"
         id="stop125" />
      <stop
         style="stop-opacity:1;stop-color:#00aaff"
         offset="1"
         id="stop126" />
    </linearGradient>
    <clipPath
       clipPathUnits="userSpaceOnUse"
       id="clipPath126">
      <path
         d="m 9431.83,9182.01 c 0,0 130.71,-6.86 157.4,-30.99 26.7,-24.12 -17.32,-72.05 -60.99,-38.3 -43.66,33.75 -96.41,69.29 -96.41,69.29 z"
         transform="translate(0,2.5000001e-4)"
         id="path126" />
    </clipPath>
    <linearGradient
       x1="0"
       y1="0"
       x2="1"
       y2="0"
       gradientUnits="userSpaceOnUse"
       gradientTransform="matrix(105.052,-20.6815,-20.6815,-105.052,10228.8,9109.66)"
       spreadMethod="pad"
       id="linearGradient128">
      <stop
         style="stop-opacity:1;stop-color:#1fe7fc"
         offset="0"
         id="stop127" />
      <stop
         style="stop-opacity:1;stop-color:#00aaff"
         offset="1"
         id="stop128" />
    </linearGradient>
    <clipPath
       clipPathUnits="userSpaceOnUse"
       id="clipPath128">
      <path
         d="m 10230.7,9119.08 c 0,0 95.5,6.33 102.9,-20.27 7.3,-26.6 -38.6,-36.41 -55.1,-8.03 z"
         transform="translate(0,2.5000001e-4)"
         id="path128" />
    </clipPath>
    <linearGradient
       x1="0"
       y1="0"
       x2="1"
       y2="0"
       gradientUnits="userSpaceOnUse"
       gradientTransform="matrix(181.724,-35.7758,-35.7758,-181.724,10434.5,9196.24)"
       spreadMethod="pad"
       id="linearGradient130">
      <stop
         style="stop-opacity:1;stop-color:#1fe7fc"
         offset="0"
         id="stop129" />
      <stop
         style="stop-opacity:1;stop-color:#00aaff"
         offset="1"
         id="stop130" />
    </linearGradient>
    <clipPath
       clipPathUnits="userSpaceOnUse"
       id="clipPath130">
      <path
         d="m 10437.9,9213.48 c 0,0 170,1.12 178.6,-50.89 0,0 -2.2,-43.57 -78,-12.94 -75.7,30.63 -100.6,63.83 -100.6,63.83 z"
         transform="translate(0,2.5000001e-4)"
         id="path130" />
    </clipPath>
    <linearGradient
       x1="0"
       y1="0"
       x2="1"
       y2="0"
       gradientUnits="userSpaceOnUse"
       gradientTransform="matrix(135.295,-26.6353,-26.6353,-135.295,10614.3,9071.56)"
       spreadMethod="pad"
       id="linearGradient132">
      <stop
         style="stop-opacity:1;stop-color:#1fe7fc"
         offset="0"
         id="stop131" />
      <stop
         style="stop-opacity:1;stop-color:#00aaff"
         offset="1"
         id="stop132" />
    </linearGradient>
    <clipPath
       clipPathUnits="userSpaceOnUse"
       id="clipPath132">
      <path
         d="m 10616.2,9080.91 c 0,0 117.3,5.19 130.1,-25.62 12.8,-30.82 -22.8,-36.38 -53.2,-14.69 -30.3,21.69 -76.9,40.31 -76.9,40.31 z"
         transform="translate(0,2.5000001e-4)"
         id="path132" />
    </clipPath>
    <linearGradient
       x1="0"
       y1="0"
       x2="1"
       y2="0"
       gradientUnits="userSpaceOnUse"
       gradientTransform="matrix(126.723,-24.9479,-24.9479,-126.723,11162.2,9203)"
       spreadMethod="pad"
       id="linearGradient134">
      <stop
         style="stop-opacity:1;stop-color:#1fe7fc"
         offset="0"
         id="stop133" />
      <stop
         style="stop-opacity:1;stop-color:#00aaff"
         offset="1"
         id="stop134" />
    </linearGradient>
    <clipPath
       clipPathUnits="userSpaceOnUse"
       id="clipPath134">
      <path
         d="m 11165.1,9218.09 c 0,0 112,-6.32 121.8,-36.54 9.7,-30.22 -44.2,-16.47 -64.2,-6.24 -20,10.22 -57.6,42.78 -57.6,42.78 z"
         transform="translate(0,2.5000001e-4)"
         id="path134" />
    </clipPath>
    <linearGradient
       x1="0"
       y1="0"
       x2="1"
       y2="0"
       gradientUnits="userSpaceOnUse"
       gradientTransform="matrix(174.067,-34.2685,-34.2685,-174.067,10811.9,9595.76)"
       spreadMethod="pad"
       id="linearGradient136">
      <stop
         style="stop-opacity:1;stop-color:#1fe7fc"
         offset="0"
         id="stop135" />
      <stop
         style="stop-opacity:1;stop-color:#00aaff"
         offset="1"
         id="stop136" />
    </linearGradient>
    <clipPath
       clipPathUnits="userSpaceOnUse"
       id="clipPath136">
      <path
         d="m 10813.7,9604.85 c 0,0 151.8,4.7 169.5,-33.37 17.6,-38.06 -62.3,-28.62 -90.2,-10.55 -27.8,18.06 -79.3,43.92 -79.3,43.92 z"
         transform="translate(0,2.5000001e-4)"
         id="path136" />
    </clipPath>
    <linearGradient
       x1="0"
       y1="0"
       x2="1"
       y2="0"
       gradientUnits="userSpaceOnUse"
       gradientTransform="matrix(154.445,-30.4054,-30.4054,-154.445,9356.65,9886.17)"
       spreadMethod="pad"
       id="linearGradient138">
      <stop
         style="stop-opacity:1;stop-color:#1fe7fc"
         offset="0"
         id="stop137" />
      <stop
         style="stop-opacity:1;stop-color:#00aaff"
         offset="1"
         id="stop138" />
    </linearGradient>
    <clipPath
       clipPathUnits="userSpaceOnUse"
       id="clipPath138">
      <path
         d="m 9347.57,9840.03 c 0,0 132.85,83.89 160.14,62.8 27.29,-21.09 -7.7,-55.08 -83.92,-58.94 -76.22,-3.86 -76.22,-3.86 -76.22,-3.86 z"
         transform="translate(0,2.5000001e-4)"
         id="path138" />
    </clipPath>
    <linearGradient
       x1="0"
       y1="0"
       x2="1"
       y2="0"
       gradientUnits="userSpaceOnUse"
       gradientTransform="matrix(138.387,-27.2441,-27.2441,-138.387,10882.2,9170.36)"
       spreadMethod="pad"
       id="linearGradient140">
      <stop
         style="stop-opacity:1;stop-color:#1fe7fc"
         offset="0"
         id="stop139" />
      <stop
         style="stop-opacity:1;stop-color:#00aaff"
         offset="1"
         id="stop140" />
    </linearGradient>
    <clipPath
       clipPathUnits="userSpaceOnUse"
       id="clipPath140">
      <path
         d="m 10883.3,9176.1 c 0,0 105.3,7.58 130.2,-25.63 24.9,-33.2 -35.7,-21.28 -67.2,-5.64 -31.5,15.63 -63,31.27 -63,31.27 z"
         transform="translate(0,2.5000001e-4)"
         id="path140" />
    </clipPath>
  </defs>
  <sodipodi:namedview
     id="namedview1"
     pagecolor="#ffffff"
     bordercolor="#000000"
     borderopacity="0.25"
     inkscape:showpageshadow="2"
     inkscape:pageopacity="0.0"
     inkscape:pagecheckerboard="0"
     inkscape:deskcolor="#d1d1d1">
    <inkscape:page
       x="0"
       y="0"
       inkscape:label="1"
       id="page1"
       width="2560"
       height="1706.6667"
       margin="0"
       bleed="0" />
  </sodipodi:namedview>
  <g
     id="g1"
     inkscape:groupmode="layer"
     inkscape:label="1">
    <g
       id="group-R5">
      <path
         id="path2"
         d="M 19200,0 H 0 V 12800 H 19200 V 0"
         style="fill:#ffffff;fill-opacity:1;fill-rule:nonzero;stroke:none"
         transform="matrix(0.13333333,0,0,-0.13333333,0,1706.6667)" />
      <path
         id="path3"
         d="m 6150.17,3924.46 v 931.41 L 5619.1,4394.76 5090.34,4856.2 v -931.74 h -276.92 v 1540.99 l 805.56,-704.2 807.94,704.37 V 3924.46 h -276.75"
         style="fill:#ee4f9a;fill-opacity:1;fill-rule:nonzero;stroke:none"
         transform="matrix(0.13333333,0,0,-0.13333333,0,1706.6667)" />
      <path
         id="path4"
         d="m 8031.73,3924.46 -291.39,550.94 -212.9,402.28 -210,-402.5 -178.41,-341.85 h -3.74 L 7026.04,3924.46 H 6711.2 l 816.52,1543.8 816.53,-1543.8 h -312.52"
         style="fill:#ee4f9a;fill-opacity:1;fill-rule:nonzero;stroke:none"
         transform="matrix(0.13333333,0,0,-0.13333333,0,1706.6667)" />
      <path
         id="path5"
         d="m 8881.74,4761.56 h 428.91 c 56.26,0 104.36,19.56 142.93,58.15 38.57,38.33 58.15,86.46 58.15,142.94 0,54.75 -19.56,102.07 -58.15,140.65 -38.7,38.5 -86.77,57.97 -142.93,57.97 h -428.91 z m 657.86,-837.1 -344.12,560.34 h -313.74 v -560.34 h -276.92 v 1513.73 h 705.83 c 82.62,0 156.36,-16.67 219.18,-49.56 63.48,-33.23 116,-76.94 156.11,-129.93 40.7,-53.76 70.14,-114.42 87.5,-180.29 17.31,-65.83 20.59,-132.74 9.75,-198.86 -10.67,-65.97 -36.3,-129.54 -76.17,-189.04 -39.22,-58.41 -95.84,-107.91 -168.24,-147.1 l -41.3,-22.37 367.6,-596.58 H 9539.6"
         style="fill:#ee4f9a;fill-opacity:1;fill-rule:nonzero;stroke:none"
         transform="matrix(0.13333333,0,0,-0.13333333,0,1706.6667)" />
      <path
         id="path6"
         d="m 11027.6,3924.46 -368.5,567.87 -184.3,-251.14 v -316.73 h -276.9 v 1516.02 h 276.9 v -732.19 l 536.9,732.19 h 341.2 l -519.7,-711.44 525.1,-804.58 h -330.7"
         style="fill:#ee4f9a;fill-opacity:1;fill-rule:nonzero;stroke:none"
         transform="matrix(0.13333333,0,0,-0.13333333,0,1706.6667)" />
      <path
         id="path7"
         d="m 12235.5,5163.73 c -65.8,0 -128.8,-12.78 -187.3,-37.98 -58.1,-25.28 -109.4,-59.99 -152.7,-103.25 -43.4,-43.37 -78,-94.73 -103.1,-152.65 -25.2,-58.33 -38,-121.37 -38,-187.37 0,-66.02 12.8,-129.06 38,-187.39 25.1,-57.93 59.7,-109.29 103.1,-152.64 43.4,-43.36 94.7,-78.05 152.6,-103.08 58.4,-25.31 121.4,-38.15 187.4,-38.15 66.2,0 129.3,12.85 187.5,38.19 57.8,24.99 109.2,59.67 152.5,103.05 43.3,43.25 78,94.57 103.2,152.52 25.3,58.44 38.1,121.48 38.1,187.5 0,66 -12.8,129.04 -38,187.37 -25.3,58.06 -60,109.39 -103.2,152.65 -43.3,43.26 -94.6,77.98 -152.6,103.19 -58.4,25.25 -121.5,38.04 -187.5,38.04 z m 0,-1239.27 c -104.2,0 -203.3,19.96 -294.4,59.33 -91.8,39.4 -173,94.14 -241.6,162.7 -68.5,68.53 -123.2,149.72 -162.6,241.31 -39.4,91.2 -59.4,190.32 -59.4,294.68 0,104.34 20,203.46 59.3,294.62 39.5,91.63 94.2,172.82 162.7,241.36 68.5,68.49 149.8,123.29 241.5,162.84 91.3,39.26 190.4,59.18 294.5,59.18 104.3,0 203.4,-19.92 294.7,-59.19 91.6,-39.54 172.8,-94.35 241.5,-162.86 68.2,-68.26 123,-149.46 162.7,-241.33 39.3,-91.48 59.3,-190.62 59.3,-294.62 0,-104.01 -20,-203.16 -59.4,-294.68 -39.6,-91.82 -94.4,-173.03 -162.6,-241.31 -68.7,-68.55 -150,-123.3 -241.5,-162.67 -91.2,-39.4 -190.3,-59.36 -294.7,-59.36"
         style="fill:#ee4f9a;fill-opacity:1;fill-rule:nonzero;stroke:none"
         transform="matrix(0.13333333,0,0,-0.13333333,0,1706.6667)" />
      <path
         id="path8"
         d="m 13337,4850.35 -124.7,547.44 h 328 l -124.7,-547.44 h -78.6"
         style="fill:#ee4f9a;fill-opacity:1;fill-rule:nonzero;stroke:none"
         transform="matrix(0.13333333,0,0,-0.13333333,0,1706.6667)" />
      <path
         id="path9"
         d="m 14300,3925.36 c -6.1,0 -12.1,0.07 -18,0.23 -29.6,0.79 -59.8,2.68 -89.9,5.63 -83.3,10.7 -168.1,32.92 -252.3,66.05 -34.9,14.56 -71.3,31.63 -107.4,50.41 -25.7,13.4 -50.6,27.18 -74.6,41.13 l 102.4,262.44 c 50.3,-29.92 90.9,-52.4 123.3,-68.31 42.3,-20.7 84.2,-37.2 124.5,-49.01 42.4,-13.12 88.1,-22.85 135.2,-28.77 20.1,-2.51 39.7,-3.79 58.4,-3.79 27.3,0 53.5,2.72 77.9,8.08 42.9,9.29 79.5,25.86 108.4,49.21 29.1,23.27 50.9,50.19 64.6,79.88 l 0.5,1.1 0.5,1.13 c 13,32.76 15.2,66.42 6.4,100.03 -9.1,35.92 -34.3,66.33 -75,90.11 -32.7,19.8 -76.7,35.28 -130.4,45.66 -49.8,9.62 -100.2,20.63 -149.9,32.75 -49.5,11.95 -99.4,27.04 -148.4,44.87 -45.8,16.67 -88.4,38.48 -126.5,64.82 l -0.9,0.56 c -36.9,24.26 -69.6,54.53 -97.3,90 -27.3,34.9 -45.9,74.41 -57.1,120.77 -11.3,46.11 -12.6,97.39 -4,152.56 8.6,55.37 25.2,105.78 49.4,149.85 25.2,43.31 56.8,78.88 94.1,105.71 39.3,28.51 81.2,50.95 124.5,66.77 43.8,16.12 91,26.89 140.2,32.06 32.3,3.29 69.2,4.97 109.4,4.97 23.7,0 48.9,-0.59 75.1,-1.74 57.6,-2.97 124.4,-9.25 198.1,-18.66 60.6,-7.71 129.2,-25.11 204.6,-51.81 l -80.6,-256.18 c -18.9,5.8 -35.4,10.17 -49.7,13.22 -20.7,4.46 -41.9,8.56 -62.9,12.19 -33.9,6.63 -63.5,11.08 -90.6,13.62 -24.2,2.12 -49.8,4.76 -78.5,8.08 l -1.1,0.13 -1.1,0.07 c -24.4,1.58 -49.8,2.77 -77.5,3.66 -5.8,0.2 -11.5,0.29 -17.2,0.29 -21.2,0 -42.4,-1.3 -63,-3.87 -26.9,-0.17 -53.2,-2.73 -78,-7.6 -17.6,-2.48 -35.7,-8.83 -54.1,-18.88 -11.4,-5.96 -21.3,-13.86 -29.5,-23.46 -5.8,-6.72 -11,-13.31 -16.1,-20.14 l -1.9,-2.56 -1.5,-2.82 c -17.9,-33 -18.9,-67.68 -3,-97.87 2.8,-5.89 6.3,-11.18 10.3,-15.79 l 2,-3.63 3.2,-3.86 c 15.1,-17.54 33.1,-31.08 53.5,-40.24 16.8,-7.34 32,-13.71 46.8,-19.64 l 0.9,-0.4 1.1,-0.35 c 38.3,-13.29 78.1,-24.17 118.4,-32.32 l 29.8,-6.15 c 28.2,-5.81 56.2,-11.59 84,-17.44 29.6,-7.74 59.3,-15.49 89,-23.4 27.3,-7.1 53.4,-16.52 77.9,-28.03 42.6,-19.1 79,-41.57 108.8,-67.12 l 1.4,-1.22 c 32.8,-25.68 61.2,-56.23 84.5,-90.82 23.4,-34.79 40.9,-72.49 52.2,-111.97 l 0.3,-0.95 c 11.4,-36.88 17.5,-74.68 18.3,-112.37 0.6,-38.5 -3.4,-76.82 -12,-113.76 -11.6,-47.78 -30,-91.22 -56,-132.29 -25.9,-41.01 -58.1,-78.77 -95.7,-112.33 -56.9,-46.5 -118.7,-80.3 -183.8,-100.46 l -2.1,-0.68 c -19,-6.89 -38.3,-11.75 -57.4,-14.45 -22.2,-3.25 -43.9,-6.31 -65.6,-9.37 -23,-2.35 -46.4,-3.53 -69.3,-3.53"
         style="fill:#ee4f9a;fill-opacity:1;fill-rule:nonzero;stroke:none"
         transform="matrix(0.13333333,0,0,-0.13333333,0,1706.6667)" />
      <path
         id="path10"
         d="M 4813.42,3697.7 H 9234.95"
         style="fill:#ee4f9a;fill-opacity:1;fill-rule:nonzero;stroke:none"
         transform="matrix(0.13333333,0,0,-0.13333333,0,1706.6667)" />
      <path
         id="path11"
         d="M 4813.42,3759.86 9234.95,3697.7 4813.42,3635.55 Z"
         style="fill:#ee4f9a;fill-opacity:1;fill-rule:nonzero;stroke:none"
         transform="matrix(0.13333333,0,0,-0.13333333,0,1706.6667)" />
      <path
         id="path12"
         d="M 4813.42,3405.84 H 9234.95"
         style="fill:#ee4f9a;fill-opacity:1;fill-rule:nonzero;stroke:none"
         transform="matrix(0.13333333,0,0,-0.13333333,0,1706.6667)" />
      <path
         id="path13"
         d="m 4813.42,3468 4421.53,-62.16 -4421.53,-62.16 z"
         style="fill:#ee4f9a;fill-opacity:1;fill-rule:nonzero;stroke:none"
         transform="matrix(0.13333333,0,0,-0.13333333,0,1706.6667)" />
      <path
         id="path14"
         d="M 4813.42,3113.98 H 9234.95"
         style="fill:#ee4f9a;fill-opacity:1;fill-rule:nonzero;stroke:none"
         transform="matrix(0.13333333,0,0,-0.13333333,0,1706.6667)" />
      <path
         id="path15"
         d="m 4813.42,3176.13 4421.53,-62.15 -4421.53,-62.16 z"
         style="fill:#ee4f9a;fill-opacity:1;fill-rule:nonzero;stroke:none"
         transform="matrix(0.13333333,0,0,-0.13333333,0,1706.6667)" />
      <path
         id="path16"
         d="M 14721.9,3051.82 H 9476.54 c -66,0 -120,54 -120,120 v 468.04 c 0,66 54,120 120,120 h 5245.36 c 66,0 120,-54 120,-120 v -468.04 c 0,-66 -54,-120 -120,-120"
         style="fill:#ee4f9a;fill-opacity:1;fill-rule:nonzero;stroke:none"
         transform="matrix(0.13333333,0,0,-0.13333333,0,1706.6667)" />
      <path
         id="path17"
         d="m 9952.99,3347.48 c -4.55,15.75 -11.43,30.62 -20.76,44.45 -9.33,13.82 -20.47,25.78 -33.42,35.98 -11.9,10.15 -26.02,18.9 -42.35,26.25 -9.62,4.49 -19.77,8.17 -30.5,10.97 -10.74,2.86 -21.47,5.66 -32.14,8.46 -13.59,2.85 -27.24,5.65 -41.07,8.51 -13.88,2.8 -27.24,6.48 -40.24,10.97 -5.66,2.27 -10.97,4.55 -16.1,6.76 -5.08,2.28 -9.57,5.66 -13.53,10.21 -0.59,1.11 -1.11,1.93 -1.7,2.51 -0.58,0.58 -1.1,1.4 -1.69,2.57 -3.38,6.18 -3.09,12.94 0.88,20.29 1.69,2.28 3.38,4.38 5.07,6.36 1.69,1.99 3.68,3.5 5.89,4.67 5.08,2.8 9.92,4.49 14.41,5.07 8.46,1.69 17.21,2.51 26.25,2.51 9.04,1.17 18.08,1.58 27.12,1.28 8.98,-0.29 18.02,-0.7 27.06,-1.28 9.57,-1.11 19.08,-2.1 28.35,-2.92 9.34,-0.87 19.6,-2.45 30.92,-4.66 6.76,-1.17 14.11,-2.57 22.04,-4.26 7.88,-1.69 18.32,-4.78 31.33,-9.27 l 38.09,121.03 c -33.89,13 -64.11,21.17 -90.59,24.55 -26.54,3.39 -50.57,5.66 -71.98,6.77 -26.53,1.17 -49.28,0.7 -68.18,-1.22 -18.9,-1.99 -36.81,-6.07 -53.72,-12.31 -16.98,-6.19 -33.02,-14.82 -48.3,-25.84 -15.22,-10.97 -27.94,-25.26 -38.09,-42.76 -9.62,-17.5 -16.09,-37.09 -19.48,-58.79 -3.38,-21.76 -2.8,-41.94 1.69,-60.55 4.55,-18.66 12.31,-34.99 23.28,-49.11 11.02,-14.11 23.85,-25.96 38.55,-35.58 14.64,-10.15 30.92,-18.49 48.71,-24.96 17.73,-6.48 35.93,-12.02 54.59,-16.51 18.61,-4.55 36.69,-8.46 54.19,-11.84 17.5,-3.38 31.32,-8.23 41.47,-14.41 10.73,-6.24 17.21,-13.71 19.48,-22.45 2.22,-8.75 1.69,-17.33 -1.69,-25.84 -3.97,-8.46 -10.15,-16.04 -18.66,-22.81 -8.46,-6.83 -19.19,-11.61 -32.14,-14.41 -13.01,-2.86 -27.42,-3.27 -43.17,-1.28 -15.8,1.98 -31.09,5.19 -45.73,9.74 -13.53,3.97 -27.53,9.45 -41.93,16.51 -14.41,7.05 -34.01,18.2 -58.86,33.42 l -48.24,-123.6 c 13.01,-7.93 25.96,-15.22 38.97,-21.99 12.95,-6.77 26.25,-13.01 39.78,-18.66 31.61,-12.43 62.93,-20.59 93.96,-24.56 11.32,-1.11 22.46,-1.81 33.49,-2.1 10.96,-0.29 22.1,0.12 33.42,1.28 7.87,1.11 15.8,2.22 23.68,3.39 7.93,1.1 15.81,3.09 23.74,5.95 25.37,7.87 49.11,20.82 71.1,38.9 14.7,13.01 27.12,27.53 37.27,43.63 10.15,16.1 17.5,33.42 21.99,52.09 3.39,14.64 4.96,29.45 4.67,44.44 -0.29,14.94 -2.68,29.75 -7.18,44.45"
         style="fill:#ffffff;fill-opacity:1;fill-rule:nonzero;stroke:none"
         transform="matrix(0.13333333,0,0,-0.13333333,0,1706.6667)" />
      <path
         id="path18"
         d="m 10358.1,3459.24 c -11,-10.74 -24.1,-16.1 -39.4,-16.1 h -137.1 v 110.88 h 137.1 c 15.3,0 28.4,-5.37 39.4,-16.04 11,-10.73 16.5,-23.74 16.5,-38.96 0,-15.81 -5.5,-29.11 -16.5,-39.78 z m 132.5,111.75 c -9.6,22.58 -22.9,42.35 -39.8,59.27 -16.9,16.91 -36.7,30.15 -59.2,39.78 -22.7,9.62 -46.9,14.4 -72.9,14.4 h -267.5 v -571.5 h 130.4 v 199.83 h 137.1 c 26,0 50.2,4.79 72.9,14.35 22.5,9.63 42.3,22.87 59.2,39.84 16.9,16.92 30.2,36.63 39.8,59.26 9.6,22.58 14.4,46.84 14.4,72.8 0,25.37 -4.8,49.4 -14.4,71.97"
         style="fill:#ffffff;fill-opacity:1;fill-rule:nonzero;stroke:none"
         transform="matrix(0.13333333,0,0,-0.13333333,0,1706.6667)" />
      <path
         id="path19"
         d="m 10905.4,3459.24 c -10.7,-10.74 -23.9,-16.1 -39.7,-16.1 h -137.2 v 110.88 h 137.2 c 15.8,0 29,-5.37 39.7,-16.04 10.8,-10.73 16.1,-23.74 16.1,-38.96 0,-15.81 -5.3,-29.11 -16.1,-39.78 z m 49.2,-123.66 c 28.2,15.28 50.1,34.47 65.6,57.57 15.5,23.16 25.4,47.71 29.6,73.67 4.3,25.96 3,51.8 -3.8,77.52 -6.8,25.66 -18.1,48.94 -33.9,69.82 -15.8,20.88 -36.1,37.79 -60.9,50.8 -24.9,13.01 -53.3,19.48 -85.5,19.48 h -267.6 v -571.5 h 130.4 v 199.83 h 87.2 l 122.8,-199.83 h 153.2 l -137.1,222.64"
         style="fill:#ffffff;fill-opacity:1;fill-rule:nonzero;stroke:none"
         transform="matrix(0.13333333,0,0,-0.13333333,0,1706.6667)" />
      <path
         id="path20"
         d="m 11170.5,3684.44 v -571.5 h 130.3 v 571.5 h -130.3"
         style="fill:#ffffff;fill-opacity:1;fill-rule:nonzero;stroke:none"
         transform="matrix(0.13333333,0,0,-0.13333333,0,1706.6667)" />
      <path
         id="path21"
         d="m 11859.6,3685.26 v -309.84 l -387.7,338.65 v -601.13 h 130.3 v 313.28 l 387.9,-338.71 v 597.75 h -130.5"
         style="fill:#ffffff;fill-opacity:1;fill-rule:nonzero;stroke:none"
         transform="matrix(0.13333333,0,0,-0.13333333,0,1706.6667)" />
      <path
         id="path22"
         d="m 12607.2,3685.26 h -160.8 l -167.7,-228.59 v 228.59 h -130.3 v -572.32 h 130.3 v 123.6 l 49.1,66.9 123.6,-190.5 h 155.8 l -197.2,302.26 197.2,270.06"
         style="fill:#ffffff;fill-opacity:1;fill-rule:nonzero;stroke:none"
         transform="matrix(0.13333333,0,0,-0.13333333,0,1706.6667)" />
      <path
         id="path23"
         d="m 12802,3243.31 v 441.95 h -130.4 v -572.32 h 374.2 v 130.37 H 12802"
         style="fill:#ffffff;fill-opacity:1;fill-rule:nonzero;stroke:none"
         transform="matrix(0.13333333,0,0,-0.13333333,0,1706.6667)" />
      <path
         id="path24"
         d="m 13558,3554.02 v 130.42 h -421.6 v -571.5 h 421.6 v 130.37 h -291.2 v 92.27 H 13520 V 3466 h -253.2 v 88.02 h 291.2"
         style="fill:#ffffff;fill-opacity:1;fill-rule:nonzero;stroke:none"
         transform="matrix(0.13333333,0,0,-0.13333333,0,1706.6667)" />
      <path
         id="path25"
         d="m 13985.6,3459.24 c -10.7,-10.74 -24,-16.1 -39.8,-16.1 h -137.2 v 110.88 h 137.2 c 15.8,0 29.1,-5.37 39.8,-16.04 10.7,-10.73 16.1,-23.74 16.1,-38.96 0,-15.81 -5.4,-29.11 -16.1,-39.78 z m 49.1,-123.66 c 28.2,15.28 50.1,34.47 65.6,57.57 15.5,23.16 25.4,47.71 29.7,73.67 4.2,25.96 2.9,51.8 -3.8,77.52 -6.8,25.66 -18.1,48.94 -33.9,69.82 -15.8,20.88 -36.1,37.79 -61,50.8 -24.8,13.01 -53.3,19.48 -85.5,19.48 h -267.5 v -571.5 h 130.3 v 199.83 h 87.3 l 122.7,-199.83 h 153.3 l -137.2,222.64"
         style="fill:#ffffff;fill-opacity:1;fill-rule:nonzero;stroke:none"
         transform="matrix(0.13333333,0,0,-0.13333333,0,1706.6667)" />
      <path
         id="path26"
         d="m 14627.4,3347.48 c -4.6,15.75 -11.5,30.62 -20.8,44.45 -9.3,13.82 -20.5,25.78 -33.4,35.98 -11.9,10.15 -26,18.9 -42.4,26.25 -9.5,4.49 -19.7,8.17 -30.4,10.97 -10.7,2.86 -21.5,5.66 -32.2,8.46 -13.5,2.85 -27.2,5.65 -41.1,8.51 -13.8,2.8 -27.2,6.48 -40.2,10.97 -5.6,2.27 -11,4.55 -16.1,6.76 -5,2.28 -9.6,5.66 -13.5,10.21 -0.6,1.11 -1.2,1.93 -1.7,2.51 -0.6,0.58 -1.1,1.4 -1.7,2.57 -3.4,6.18 -3.1,12.94 0.8,20.29 1.7,2.28 3.4,4.38 5.1,6.36 1.7,1.99 3.7,3.5 6,4.67 5,2.8 9.8,4.49 14.3,5.07 8.5,1.69 17.3,2.51 26.3,2.51 9,1.17 18.1,1.58 27.1,1.28 9,-0.29 18.1,-0.7 27.1,-1.28 9.6,-1.11 19,-2.1 28.4,-2.92 9.2,-0.87 19.6,-2.45 30.9,-4.66 6.7,-1.17 14,-2.57 22,-4.26 7.8,-1.69 18.3,-4.78 31.3,-9.27 l 38.1,121.03 c -33.9,13 -64.1,21.17 -90.6,24.55 -26.5,3.39 -50.5,5.66 -72,6.77 -26.5,1.17 -49.2,0.7 -68.1,-1.22 -19,-1.99 -36.9,-6.07 -53.8,-12.31 -16.9,-6.19 -33,-14.82 -48.2,-25.84 -15.3,-10.97 -28,-25.26 -38.2,-42.76 -9.5,-17.5 -16,-37.09 -19.5,-58.79 -3.3,-21.76 -2.8,-41.94 1.8,-60.55 4.5,-18.66 12.2,-34.99 23.3,-49.11 10.9,-14.11 23.8,-25.96 38.5,-35.58 14.7,-10.15 30.9,-18.49 48.7,-24.96 17.8,-6.48 36,-12.02 54.6,-16.51 18.6,-4.55 36.7,-8.46 54.1,-11.84 17.5,-3.38 31.4,-8.23 41.5,-14.41 10.8,-6.24 17.2,-13.71 19.5,-22.45 2.3,-8.75 1.7,-17.33 -1.7,-25.84 -4,-8.46 -10.1,-16.04 -18.6,-22.81 -8.5,-6.83 -19.2,-11.61 -32.2,-14.41 -12.9,-2.86 -27.3,-3.27 -43.2,-1.28 -15.8,1.98 -31,5.19 -45.7,9.74 -13.5,3.97 -27.5,9.45 -41.9,16.51 -14.4,7.05 -34,18.2 -58.8,33.42 l -48.3,-123.6 c 13,-7.93 25.9,-15.22 38.9,-21.99 13.1,-6.77 26.3,-13.01 39.8,-18.66 31.6,-12.43 63,-20.59 94,-24.56 11.3,-1.11 22.5,-1.81 33.5,-2.1 11,-0.29 22.1,0.12 33.4,1.28 7.9,1.11 15.8,2.22 23.7,3.39 7.9,1.1 15.8,3.09 23.7,5.95 25.5,7.87 49.1,20.82 71.1,38.9 14.7,13.01 27.1,27.53 37.3,43.63 10.1,16.1 17.5,33.42 22,52.09 3.4,14.64 4.9,29.45 4.6,44.44 -0.2,14.94 -2.6,29.75 -7.1,44.45"
         style="fill:#ffffff;fill-opacity:1;fill-rule:nonzero;stroke:none"
         transform="matrix(0.13333333,0,0,-0.13333333,0,1706.6667)" />
      <path
         id="path27"
         d="m 7918.07,9513 -512.27,-20 c 128.48,369.1 383.47,702.8 741.95,914.5 755.61,446.3 1806.26,315.8 2676.75,-251.1 -807.8,404 -1730.59,426.4 -2372.73,-15.2 -242.11,-166.49 -420.06,-382.27 -533.7,-628.2"
         style="fill:#ee4f9a;fill-opacity:1;fill-rule:nonzero;stroke:none"
         transform="matrix(0.13333333,0,0,-0.13333333,0,1706.6667)" />
      <path
         id="path28"
         d="m 11522.3,9485.02 h -427.1 c -668.1,620.68 -1615.31,864.98 -2398.1,545.88 -200.49,-81.72 -375.32,-194.33 -522.48,-330.86 179.32,242.15 424.72,437.46 729.14,561.56 873.5,356.1 1951.74,10.6 2618.54,-776.58"
         style="fill:#ee4f9a;fill-opacity:1;fill-rule:nonzero;stroke:none"
         transform="matrix(0.13333333,0,0,-0.13333333,0,1706.6667)" />
      <path
         id="path29"
         d="m 12207.4,6976.43 c -1.1,-2.94 -2.2,-5.87 -3.3,-8.81 -131.6,-353.51 -372.2,-653.85 -719.1,-858.72 -978.9,-578.1 -2453.25,-188.22 -3389.14,864.66 l 561.7,-0.83 c 915.36,-838.51 2247.14,-1061.36 3092.34,-480.04 190.5,130.94 341.2,292.37 452.1,474.93 1.8,2.94 3.6,5.87 5.4,8.81"
         style="fill:#ee4f9a;fill-opacity:1;fill-rule:nonzero;stroke:none"
         transform="matrix(0.13333333,0,0,-0.13333333,0,1706.6667)" />
      <path
         id="path30"
         d="m 12055.4,6967.83 c -77.2,-171.51 -232.5,-323.15 -441,-439.68 -58.7,-32.87 -121.7,-62.88 -188.4,-89.81 -239.8,-96.87 -527.1,-153.32 -836,-153.32 -43.7,0 -87,1.12 -129.9,3.36 -214.7,11.12 -416.8,49.59 -596.71,109.67 -177.96,59.46 -334.42,139.96 -460.25,236.21 121.82,-59.38 258.96,-107.65 407,-142.06 0.72,-0.21 1.44,-0.35 2.16,-0.49 33.04,-7.62 66.57,-14.62 100.65,-20.84 20.85,-3.85 41.94,-7.42 63.19,-10.64 0.08,-0.06 0.08,-0.06 0.08,-0.06 11.63,-1.82 23.34,-3.57 35.18,-5.11 108.7,-15.18 221.9,-23.15 338.1,-23.15 312.2,0 602.4,57.63 843.8,156.47 3.8,1.53 7.5,3.07 11.3,4.68 73,30.5 141.5,64.77 204.7,102.4 9,5.39 18.1,10.91 26.9,16.51 12.3,7.62 24.3,15.39 36.1,23.36 102.8,68.97 188.9,147.45 254.3,232.99 l 328.8,-0.49"
         style="fill:#ee4f9a;fill-opacity:1;fill-rule:nonzero;stroke:none"
         transform="matrix(0.13333333,0,0,-0.13333333,0,1706.6667)" />
      <path
         id="path31"
         d="m 11798.7,9589.39 h -820.4 c 6.7,-6.1 13.6,-12.5 20.7,-19.2 37.4,-35.8 78.9,-80.2 118.4,-132.4 h 681.3 c 588.3,0 1066.8,-478.6 1066.8,-1066.8 v -199.5 c 0,-588.2 -478.5,-1066.8 -1066.8,-1066.8 H 7856.53 c -588.2,0 -1066.8,478.6 -1066.8,1066.8 v 199.5 c 0,588.2 478.6,1066.8 1066.8,1066.8 h 45.2 c 15.2,59.3 35,109.7 55.7,151.6 h -100.9 c -149.3,0 -292.5,-27 -424.8,-76.4 -463,-172.8 -793.6,-619.5 -793.6,-1142 v -199.5 c 0,-671.9 546.6,-1218.4 1218.4,-1218.4 h 3942.17 c 64.5,0 127.9,5 189.7,14.8 582.1,91.3 1028.8,596.2 1028.8,1203.6 v 199.5 c 0,671.8 -546.6,1218.4 -1218.5,1218.4"
         style="fill:#ee4f9a;fill-opacity:1;fill-rule:nonzero;stroke:none"
         transform="matrix(0.13333333,0,0,-0.13333333,0,1706.6667)" />
      <path
         id="path32"
         d="m 8232.06,8603.92 -169.56,3.5 c -9.5,7.7 -54.27,3.19 -54.27,24.48 l 15.71,406.25 h 234.59 v -407.22 c 0,-12.98 -13.48,-27.01 -26.47,-27.01"
         style="fill:#ee4f9a;fill-opacity:1;fill-rule:nonzero;stroke:none"
         transform="matrix(0.13333333,0,0,-0.13333333,0,1706.6667)" />
      <path
         id="path33"
         d="m 8222.96,8608.39 h -63.46 v 411.5 h 63.46 v -411.5"
         style="fill:#ffffff;fill-opacity:1;fill-rule:nonzero;stroke:none"
         transform="matrix(0.13333333,0,0,-0.13333333,0,1706.6667)" />
      <path
         id="path34"
         d="m 8303.72,9048.73 h -319.2 v 105.76 h 319.2 v -105.76"
         style="fill:#ee4f9a;fill-opacity:1;fill-rule:nonzero;stroke:none"
         transform="matrix(0.13333333,0,0,-0.13333333,0,1706.6667)" />
      <path
         id="path35"
         d="m 8247.96,9048.73 h -80.77 v 105.76 h 80.77 v -105.76"
         style="fill:#ffffff;fill-opacity:1;fill-rule:nonzero;stroke:none"
         transform="matrix(0.13333333,0,0,-0.13333333,0,1706.6667)" />
      <path
         id="path36"
         d="m 8201.81,9167.95 h -124.99 v 132.68 h 124.99 v -132.68"
         style="fill:#ee4f9a;fill-opacity:1;fill-rule:nonzero;stroke:none"
         transform="matrix(0.13333333,0,0,-0.13333333,0,1706.6667)" />
      <path
         id="path37"
         d="m 8186.42,9167.95 h -40.38 v 126.91 h 40.38 v -126.91"
         style="fill:#ffffff;fill-opacity:1;fill-rule:nonzero;stroke:none"
         transform="matrix(0.13333333,0,0,-0.13333333,0,1706.6667)" />
      <path
         id="path38"
         d="m 8247.96,9308.32 h -211.52 v 59.61 h 211.52 v -59.61"
         style="fill:#ee4f9a;fill-opacity:1;fill-rule:nonzero;stroke:none"
         transform="matrix(0.13333333,0,0,-0.13333333,0,1706.6667)" />
      <path
         id="path39"
         d="m 8219.11,9308.32 h -59.61 v 59.61 h 59.61 v -59.61"
         style="fill:#ffffff;fill-opacity:1;fill-rule:nonzero;stroke:none"
         transform="matrix(0.13333333,0,0,-0.13333333,0,1706.6667)" />
      <path
         id="path40"
         d="m 10833.9,9285.98 c -35.8,-35.92 -62.6,-86.23 -82.7,-142.15 -7.4,-20.44 -13.8,-41.65 -19.5,-63.17 -21.6,-82.15 -31.7,-168.92 -36.4,-236.41 -0.3,-3.89 -0.5,-7.73 -0.8,-11.47 h -52.9 c 1.9,23.13 4.1,45.1 6.8,65.98 9.8,77.2 24.9,139.36 42.4,189.34 57.7,165.56 141.1,197.18 143.1,197.88"
         style="fill:#ee4f9a;fill-opacity:1;fill-rule:nonzero;stroke:none"
         transform="matrix(0.13333333,0,0,-0.13333333,0,1706.6667)" />
      <path
         id="path41"
         d="m 10658.6,9165.73 c -34.4,-60.31 -47.4,-151.5 -51,-236 -0.1,-3.29 -0.3,-6.57 -0.4,-9.86 -1,-30.76 -0.8,-60.39 -0.1,-87.09 h -38.3 c 0,6.31 0,12.52 0.1,18.62 0.1,9.33 0.4,18.4 0.7,27.23 2.1,49.9 7.8,91.86 15.2,126.94 25.9,121.08 73.8,160.16 73.8,160.16"
         style="fill:#ee4f9a;fill-opacity:1;fill-rule:nonzero;stroke:none"
         transform="matrix(0.13333333,0,0,-0.13333333,0,1706.6667)" />
      <path
         id="path42"
         d="m 10910.7,9202.05 c -74.9,-22.04 -129.7,-67.2 -169.8,-121.39 -41.6,-56.14 -67.4,-122 -83.3,-181.9 -6.2,-23.18 -11,-45.49 -14.5,-65.98 h -59.4 c 6.6,31.67 14.6,60.63 23.5,87.09 0.6,1.63 1.1,3.24 1.7,4.82 24.7,71.18 56.9,124.08 91,163.41 19.9,22.86 40.4,41.14 60.4,55.73 78.5,57.12 150.4,58.22 150.4,58.22"
         style="fill:#ee4f9a;fill-opacity:1;fill-rule:nonzero;stroke:none"
         transform="matrix(0.13333333,0,0,-0.13333333,0,1706.6667)" />
      <path
         id="path43"
         d="m 10869.7,9062.58 c -83.2,-41.39 -140.4,-146.11 -174.2,-228.57 h -35.8 c 1.3,3.89 2.5,7.73 3.9,11.47 65,188.38 206.1,217.1 206.1,217.1"
         style="fill:#ee4f9a;fill-opacity:1;fill-rule:nonzero;stroke:none"
         transform="matrix(0.13333333,0,0,-0.13333333,0,1706.6667)" />
      <path
         id="path44"
         d="m 10852.6,8947.85 c -55.1,-23.51 -96,-69.79 -124.7,-114.84 0,-0.1 -0.1,-0.17 -0.1,-0.27 h -50.4 c 17.8,25.05 37.5,44.72 57,60.2 59.6,47.14 118.2,54.91 118.2,54.91"
         style="fill:#ee4f9a;fill-opacity:1;fill-rule:nonzero;stroke:none"
         transform="matrix(0.13333333,0,0,-0.13333333,0,1706.6667)" />
      <path
         id="path45"
         d="m 10540.9,8832.78 h -36.7 c -15.1,24.9 -34.5,52.35 -57.6,75.5 -14.8,14.88 -31.1,27.93 -48.7,37.33 0,0 61.5,-3.93 115.9,-71.71 9.3,-11.68 18.5,-25.29 27.1,-41.12"
         style="fill:#ee4f9a;fill-opacity:1;fill-rule:nonzero;stroke:none"
         transform="matrix(0.13333333,0,0,-0.13333333,0,1706.6667)" />
      <path
         id="path46"
         d="m 10627.2,8832.78 h -49.8 c -2.5,15.86 -5.1,31.14 -7.8,45.85 -50.6,276.23 -141.7,353.49 -146.4,357.3 79.7,-51.34 130,-140.59 161.6,-230.36 9.1,-25.51 16.6,-51.08 22.8,-75.84 0.4,-1.68 0.9,-3.36 1.3,-5.04 8.1,-32.87 14,-64.18 18.3,-91.91"
         style="fill:#ee4f9a;fill-opacity:1;fill-rule:nonzero;stroke:none"
         transform="matrix(0.13333333,0,0,-0.13333333,0,1706.6667)" />
      <path
         id="path47"
         d="m 10587.2,8832.67 h -46.2 c -32.4,63.6 -78.9,128.3 -142.5,161.06 0,0 115.2,-13.54 188.7,-161.06"
         style="fill:#ee4f9a;fill-opacity:1;fill-rule:nonzero;stroke:none"
         transform="matrix(0.13333333,0,0,-0.13333333,0,1706.6667)" />
      <path
         id="path48"
         d="m 11013.5,9286.03 c -35.8,-35.91 -62.6,-86.22 -82.7,-142.15 -7.4,-20.44 -13.8,-41.65 -19.5,-63.17 -21.6,-82.14 -31.7,-168.92 -36.4,-236.41 -0.3,-3.88 -0.5,-7.72 -0.7,-11.46 h -52.9 c 1.8,23.12 4,45.1 6.7,65.97 9.8,77.21 24.9,139.37 42.4,189.34 57.7,165.56 141.2,197.18 143.1,197.88"
         style="fill:#ee4f9a;fill-opacity:1;fill-rule:nonzero;stroke:none"
         transform="matrix(0.13333333,0,0,-0.13333333,0,1706.6667)" />
      <path
         id="path49"
         d="m 10838.2,9165.79 c -34.4,-60.32 -47.4,-151.51 -51,-236.01 -0.1,-3.28 -0.2,-6.57 -0.3,-9.86 -1.1,-30.75 -0.9,-60.38 -0.2,-87.08 h -38.3 c 0,6.3 0,12.52 0.1,18.61 0.1,9.34 0.4,18.4 0.8,27.23 2,49.9 7.7,91.87 15.2,126.94 25.8,121.08 73.7,160.17 73.7,160.17"
         style="fill:#ee4f9a;fill-opacity:1;fill-rule:nonzero;stroke:none"
         transform="matrix(0.13333333,0,0,-0.13333333,0,1706.6667)" />
      <path
         id="path50"
         d="m 11090.3,9202.11 c -74.9,-22.05 -129.7,-67.2 -169.8,-121.4 -41.6,-56.14 -67.3,-121.99 -83.3,-181.9 -6.2,-23.17 -10.9,-45.49 -14.5,-65.97 h -59.3 c 6.6,31.66 14.5,60.62 23.5,87.08 0.5,1.64 1,3.24 1.6,4.83 24.7,71.18 56.9,124.08 91,163.4 19.9,22.86 40.4,41.15 60.5,55.73 78.4,57.13 150.3,58.23 150.3,58.23"
         style="fill:#ee4f9a;fill-opacity:1;fill-rule:nonzero;stroke:none"
         transform="matrix(0.13333333,0,0,-0.13333333,0,1706.6667)" />
      <path
         id="path51"
         d="m 11049.3,9062.63 c -83.2,-41.38 -140.4,-146.11 -174.1,-228.56 h -35.8 c 1.2,3.88 2.5,7.72 3.8,11.46 65,188.38 206.1,217.1 206.1,217.1"
         style="fill:#ee4f9a;fill-opacity:1;fill-rule:nonzero;stroke:none"
         transform="matrix(0.13333333,0,0,-0.13333333,0,1706.6667)" />
      <path
         id="path52"
         d="m 11032.2,8947.91 c -55.1,-23.51 -96,-69.79 -124.6,-114.85 -0.1,-0.09 -0.2,-0.17 -0.2,-0.26 h -50.4 c 17.8,25.04 37.5,44.72 57,60.19 59.6,47.14 118.2,54.92 118.2,54.92"
         style="fill:#ee4f9a;fill-opacity:1;fill-rule:nonzero;stroke:none"
         transform="matrix(0.13333333,0,0,-0.13333333,0,1706.6667)" />
      <path
         id="path53"
         d="m 10720.5,8832.84 h -36.7 c -15.1,24.9 -34.5,52.34 -57.6,75.5 -14.8,14.87 -31.1,27.92 -48.7,37.33 0,0 61.6,-3.94 115.9,-71.71 9.3,-11.69 18.5,-25.29 27.1,-41.12"
         style="fill:#ee4f9a;fill-opacity:1;fill-rule:nonzero;stroke:none"
         transform="matrix(0.13333333,0,0,-0.13333333,0,1706.6667)" />
      <path
         id="path54"
         d="m 10806.8,8832.84 h -49.8 c -2.5,15.85 -5.1,31.14 -7.7,45.84 -50.7,276.24 -141.8,353.49 -146.5,357.31 79.7,-51.35 130,-140.59 161.7,-230.37 9,-25.5 16.5,-51.08 22.7,-75.84 0.4,-1.68 0.9,-3.35 1.3,-5.03 8.1,-32.87 14,-64.18 18.3,-91.91"
         style="fill:#ee4f9a;fill-opacity:1;fill-rule:nonzero;stroke:none"
         transform="matrix(0.13333333,0,0,-0.13333333,0,1706.6667)" />
      <path
         id="path55"
         d="m 10766.8,8832.73 h -46.2 c -32.4,63.6 -78.8,128.3 -142.5,161.05 0,0 115.2,-13.53 188.7,-161.05"
         style="fill:#ee4f9a;fill-opacity:1;fill-rule:nonzero;stroke:none"
         transform="matrix(0.13333333,0,0,-0.13333333,0,1706.6667)" />
      <path
         id="path56"
         d="m 11076.6,9285.98 c 35.8,-35.92 62.6,-86.23 82.7,-142.15 7.4,-20.44 13.8,-41.65 19.5,-63.17 21.6,-82.15 31.7,-168.92 36.4,-236.41 0.3,-3.89 0.5,-7.73 0.8,-11.47 h 52.9 c -1.9,23.13 -4.1,45.1 -6.8,65.98 -9.8,77.2 -24.9,139.36 -42.3,189.34 -57.8,165.56 -141.2,197.18 -143.2,197.88"
         style="fill:#ee4f9a;fill-opacity:1;fill-rule:nonzero;stroke:none"
         transform="matrix(0.13333333,0,0,-0.13333333,0,1706.6667)" />
      <path
         id="path57"
         d="m 11251.9,9165.73 c 34.5,-60.31 47.4,-151.5 51,-236 0.1,-3.29 0.3,-6.57 0.4,-9.86 1,-30.76 0.9,-60.39 0.1,-87.09 h 38.3 c 0.1,6.31 0,12.52 -0.1,18.62 -0.1,9.33 -0.4,18.4 -0.7,27.23 -2.1,49.9 -7.7,91.86 -15.2,126.94 -25.9,121.08 -73.8,160.16 -73.8,160.16"
         style="fill:#ee4f9a;fill-opacity:1;fill-rule:nonzero;stroke:none"
         transform="matrix(0.13333333,0,0,-0.13333333,0,1706.6667)" />
      <path
         id="path58"
         d="m 10999.9,9202.05 c 74.8,-22.04 129.6,-67.2 169.7,-121.39 41.6,-56.14 67.4,-122 83.4,-181.9 6.1,-23.18 10.9,-45.49 14.5,-65.98 h 59.3 c -6.6,31.67 -14.6,60.63 -23.5,87.09 -0.6,1.63 -1.1,3.24 -1.7,4.82 -24.7,71.18 -56.8,124.08 -91,163.41 -19.9,22.86 -40.4,41.14 -60.4,55.73 -78.5,57.12 -150.3,58.22 -150.3,58.22"
         style="fill:#ee4f9a;fill-opacity:1;fill-rule:nonzero;stroke:none"
         transform="matrix(0.13333333,0,0,-0.13333333,0,1706.6667)" />
      <path
         id="path59"
         d="m 11040.8,9062.58 c 83.2,-41.39 140.4,-146.11 174.2,-228.57 h 35.8 c -1.3,3.89 -2.5,7.73 -3.8,11.47 -65.1,188.38 -206.2,217.1 -206.2,217.1"
         style="fill:#ee4f9a;fill-opacity:1;fill-rule:nonzero;stroke:none"
         transform="matrix(0.13333333,0,0,-0.13333333,0,1706.6667)" />
      <path
         id="path60"
         d="m 11057.9,8947.85 c 55.2,-23.51 96.1,-69.79 124.7,-114.84 0,-0.1 0.1,-0.17 0.1,-0.27 h 50.4 c -17.8,25.05 -37.4,44.72 -57,60.2 -59.6,47.14 -118.2,54.91 -118.2,54.91"
         style="fill:#ee4f9a;fill-opacity:1;fill-rule:nonzero;stroke:none"
         transform="matrix(0.13333333,0,0,-0.13333333,0,1706.6667)" />
      <path
         id="path61"
         d="m 11369.6,8832.78 h 36.8 c 15,24.9 34.4,52.35 57.5,75.5 14.8,14.88 31.1,27.93 48.8,37.33 0,0 -61.6,-3.93 -115.9,-71.71 -9.4,-11.68 -18.6,-25.29 -27.2,-41.12"
         style="fill:#ee4f9a;fill-opacity:1;fill-rule:nonzero;stroke:none"
         transform="matrix(0.13333333,0,0,-0.13333333,0,1706.6667)" />
      <path
         id="path62"
         d="m 11283.3,8832.78 h 49.8 c 2.5,15.86 5.1,31.14 7.8,45.85 50.7,276.23 141.7,353.49 146.4,357.3 -79.7,-51.34 -129.9,-140.59 -161.6,-230.36 -9,-25.51 -16.6,-51.08 -22.8,-75.84 -0.4,-1.68 -0.8,-3.36 -1.3,-5.04 -8.1,-32.87 -14,-64.18 -18.3,-91.91"
         style="fill:#ee4f9a;fill-opacity:1;fill-rule:nonzero;stroke:none"
         transform="matrix(0.13333333,0,0,-0.13333333,0,1706.6667)" />
      <path
         id="path63"
         d="m 11323.3,8832.67 h 46.2 c 32.4,63.6 78.9,128.3 142.5,161.06 0,0 -115.1,-13.54 -188.7,-161.06"
         style="fill:#ee4f9a;fill-opacity:1;fill-rule:nonzero;stroke:none"
         transform="matrix(0.13333333,0,0,-0.13333333,0,1706.6667)" />
      <path
         id="path64"
         d="m 10897,9286.03 c 35.8,-35.91 62.6,-86.22 82.7,-142.15 7.4,-20.44 13.8,-41.65 19.5,-63.17 21.6,-82.14 31.7,-168.92 36.4,-236.41 0.3,-3.88 0.5,-7.72 0.8,-11.46 h 52.9 c -1.9,23.12 -4.1,45.1 -6.8,65.97 -9.8,77.21 -24.9,139.37 -42.4,189.34 -57.7,165.56 -141.1,197.18 -143.1,197.88"
         style="fill:#ee4f9a;fill-opacity:1;fill-rule:nonzero;stroke:none"
         transform="matrix(0.13333333,0,0,-0.13333333,0,1706.6667)" />
      <path
         id="path65"
         d="m 11072.3,9165.79 c 34.4,-60.32 47.4,-151.51 51,-236.01 0.1,-3.28 0.3,-6.57 0.4,-9.86 1,-30.75 0.8,-60.38 0.1,-87.08 h 38.3 c 0,6.3 0,12.52 -0.1,18.61 -0.1,9.34 -0.4,18.4 -0.7,27.23 -2.1,49.9 -7.8,91.87 -15.2,126.94 -25.9,121.08 -73.8,160.17 -73.8,160.17"
         style="fill:#ee4f9a;fill-opacity:1;fill-rule:nonzero;stroke:none"
         transform="matrix(0.13333333,0,0,-0.13333333,0,1706.6667)" />
      <path
         id="path66"
         d="m 10820.3,9202.11 c 74.8,-22.05 129.6,-67.2 169.7,-121.4 41.6,-56.14 67.4,-121.99 83.3,-181.9 6.2,-23.17 11,-45.49 14.5,-65.97 h 59.4 c -6.6,31.66 -14.6,60.62 -23.5,87.08 -0.6,1.64 -1.1,3.24 -1.7,4.83 -24.7,71.18 -56.9,124.08 -91,163.4 -19.9,22.86 -40.4,41.15 -60.4,55.73 -78.5,57.13 -150.3,58.23 -150.3,58.23"
         style="fill:#ee4f9a;fill-opacity:1;fill-rule:nonzero;stroke:none"
         transform="matrix(0.13333333,0,0,-0.13333333,0,1706.6667)" />
      <path
         id="path67"
         d="m 10861.2,9062.63 c 83.2,-41.38 140.4,-146.11 174.2,-228.56 h 35.8 c -1.3,3.88 -2.5,7.72 -3.9,11.46 -65,188.38 -206.1,217.1 -206.1,217.1"
         style="fill:#ee4f9a;fill-opacity:1;fill-rule:nonzero;stroke:none"
         transform="matrix(0.13333333,0,0,-0.13333333,0,1706.6667)" />
      <path
         id="path68"
         d="m 10878.3,8947.91 c 55.1,-23.51 96,-69.79 124.7,-114.85 0,-0.09 0.1,-0.17 0.1,-0.26 h 50.4 c -17.8,25.04 -37.5,44.72 -57,60.19 -59.6,47.14 -118.2,54.92 -118.2,54.92"
         style="fill:#ee4f9a;fill-opacity:1;fill-rule:nonzero;stroke:none"
         transform="matrix(0.13333333,0,0,-0.13333333,0,1706.6667)" />
      <path
         id="path69"
         d="m 11190,8832.84 h 36.7 c 15.1,24.9 34.5,52.34 57.6,75.5 14.8,14.87 31.1,27.92 48.7,37.33 0,0 -61.5,-3.94 -115.8,-71.71 -9.4,-11.69 -18.6,-25.29 -27.2,-41.12"
         style="fill:#ee4f9a;fill-opacity:1;fill-rule:nonzero;stroke:none"
         transform="matrix(0.13333333,0,0,-0.13333333,0,1706.6667)" />
      <path
         id="path70"
         d="m 11103.7,8832.84 h 49.8 c 2.5,15.85 5.1,31.14 7.8,45.84 50.6,276.24 141.7,353.49 146.4,357.31 -79.7,-51.35 -130,-140.59 -161.6,-230.37 -9.1,-25.5 -16.6,-51.08 -22.8,-75.84 -0.4,-1.68 -0.9,-3.35 -1.3,-5.03 -8.1,-32.87 -14,-64.18 -18.3,-91.91"
         style="fill:#ee4f9a;fill-opacity:1;fill-rule:nonzero;stroke:none"
         transform="matrix(0.13333333,0,0,-0.13333333,0,1706.6667)" />
      <path
         id="path71"
         d="m 11143.7,8832.73 h 46.2 c 32.4,63.6 78.9,128.3 142.5,161.05 0,0 -115.2,-13.53 -188.7,-161.05"
         style="fill:#ee4f9a;fill-opacity:1;fill-rule:nonzero;stroke:none"
         transform="matrix(0.13333333,0,0,-0.13333333,0,1706.6667)" />
      <path
         id="path72"
         d="m 11685.3,9252.3 c -35.8,-35.91 -62.6,-86.22 -82.7,-142.15 -7.3,-20.44 -13.8,-41.65 -19.5,-63.17 -21.6,-82.14 -31.7,-168.92 -36.4,-236.41 -0.2,-3.88 -0.5,-7.72 -0.7,-11.46 h -52.9 c 1.8,23.12 4.1,45.1 6.7,65.97 9.8,77.21 24.9,139.37 42.4,189.34 57.7,165.56 141.2,197.18 143.1,197.88"
         style="fill:#ee4f9a;fill-opacity:1;fill-rule:nonzero;stroke:none"
         transform="matrix(0.13333333,0,0,-0.13333333,0,1706.6667)" />
      <path
         id="path73"
         d="m 11510,9132.06 c -34.4,-60.32 -47.4,-151.51 -51,-236.01 -0.1,-3.28 -0.2,-6.57 -0.3,-9.86 -1.1,-30.75 -0.9,-60.38 -0.2,-87.08 h -38.3 c 0,6.31 0,12.52 0.1,18.61 0.2,9.34 0.4,18.4 0.8,27.23 2,49.9 7.7,91.87 15.2,126.94 25.8,121.08 73.7,160.17 73.7,160.17"
         style="fill:#ee4f9a;fill-opacity:1;fill-rule:nonzero;stroke:none"
         transform="matrix(0.13333333,0,0,-0.13333333,0,1706.6667)" />
      <path
         id="path74"
         d="m 11762.1,9168.38 c -74.9,-22.05 -129.7,-67.2 -169.8,-121.4 -41.5,-56.14 -67.3,-121.99 -83.3,-181.9 -6.2,-23.17 -10.9,-45.49 -14.5,-65.97 h -59.3 c 6.6,31.66 14.5,60.62 23.5,87.08 0.5,1.64 1.1,3.24 1.6,4.83 24.7,71.18 56.9,124.08 91.1,163.4 19.8,22.86 40.3,41.15 60.4,55.73 78.4,57.13 150.3,58.23 150.3,58.23"
         style="fill:#ee4f9a;fill-opacity:1;fill-rule:nonzero;stroke:none"
         transform="matrix(0.13333333,0,0,-0.13333333,0,1706.6667)" />
      <path
         id="path75"
         d="m 11721.2,9028.9 c -83.3,-41.38 -140.5,-146.11 -174.2,-228.56 h -35.8 c 1.2,3.88 2.5,7.72 3.8,11.46 65,188.38 206.2,217.1 206.2,217.1"
         style="fill:#ee4f9a;fill-opacity:1;fill-rule:nonzero;stroke:none"
         transform="matrix(0.13333333,0,0,-0.13333333,0,1706.6667)" />
      <path
         id="path76"
         d="m 11704,8914.18 c -55.1,-23.51 -96,-69.79 -124.6,-114.85 -0.1,-0.1 -0.1,-0.17 -0.2,-0.26 h -50.4 c 17.8,25.04 37.5,44.72 57,60.19 59.7,47.14 118.2,54.92 118.2,54.92"
         style="fill:#ee4f9a;fill-opacity:1;fill-rule:nonzero;stroke:none"
         transform="matrix(0.13333333,0,0,-0.13333333,0,1706.6667)" />
      <path
         id="path77"
         d="m 11392.3,8799.11 h -36.7 c -15.1,24.9 -34.5,52.34 -57.5,75.5 -14.8,14.87 -31.2,27.92 -48.8,37.33 0,0 61.6,-3.94 115.9,-71.71 9.4,-11.69 18.5,-25.29 27.1,-41.12"
         style="fill:#ee4f9a;fill-opacity:1;fill-rule:nonzero;stroke:none"
         transform="matrix(0.13333333,0,0,-0.13333333,0,1706.6667)" />
      <path
         id="path78"
         d="m 11478.7,8799.11 h -49.9 c -2.4,15.85 -5,31.14 -7.7,45.84 -50.7,276.24 -141.8,353.49 -146.5,357.3 79.7,-51.34 130,-140.58 161.7,-230.36 9,-25.5 16.5,-51.08 22.7,-75.84 0.5,-1.68 0.9,-3.35 1.3,-5.03 8.1,-32.87 14,-64.18 18.4,-91.91"
         style="fill:#ee4f9a;fill-opacity:1;fill-rule:nonzero;stroke:none"
         transform="matrix(0.13333333,0,0,-0.13333333,0,1706.6667)" />
      <path
         id="path79"
         d="m 11438.7,8799 h -46.2 c -32.4,63.6 -78.9,128.3 -142.6,161.05 0,0 115.2,-13.53 188.8,-161.05"
         style="fill:#ee4f9a;fill-opacity:1;fill-rule:nonzero;stroke:none"
         transform="matrix(0.13333333,0,0,-0.13333333,0,1706.6667)" />
      <path
         id="path80"
         d="m 11864.9,9252.36 c -35.8,-35.92 -62.6,-86.23 -82.7,-142.15 -7.3,-20.44 -13.8,-41.65 -19.4,-63.17 -21.7,-82.15 -31.8,-168.92 -36.5,-236.41 -0.2,-3.89 -0.5,-7.73 -0.7,-11.47 h -52.9 c 1.8,23.13 4.1,45.1 6.7,65.98 9.9,77.2 25,139.36 42.4,189.34 57.8,165.56 141.2,197.18 143.1,197.88"
         style="fill:#ee4f9a;fill-opacity:1;fill-rule:nonzero;stroke:none"
         transform="matrix(0.13333333,0,0,-0.13333333,0,1706.6667)" />
      <path
         id="path81"
         d="m 11689.6,9132.11 c -34.4,-60.31 -47.4,-151.5 -50.9,-236 -0.2,-3.29 -0.3,-6.57 -0.4,-9.86 -1.1,-30.76 -0.9,-60.39 -0.2,-87.09 h -38.3 c 0,6.31 0,12.52 0.1,18.62 0.2,9.33 0.4,18.4 0.8,27.23 2.1,49.9 7.7,91.86 15.2,126.94 25.8,121.08 73.7,160.16 73.7,160.16"
         style="fill:#ee4f9a;fill-opacity:1;fill-rule:nonzero;stroke:none"
         transform="matrix(0.13333333,0,0,-0.13333333,0,1706.6667)" />
      <path
         id="path82"
         d="m 11941.7,9168.43 c -74.9,-22.04 -129.7,-67.2 -169.8,-121.39 -41.5,-56.14 -67.3,-122 -83.3,-181.9 -6.2,-23.18 -10.9,-45.49 -14.5,-65.98 h -59.3 c 6.6,31.67 14.5,60.63 23.5,87.09 0.5,1.63 1.1,3.24 1.6,4.82 24.7,71.18 56.9,124.08 91.1,163.41 19.8,22.86 40.3,41.14 60.4,55.73 78.5,57.12 150.3,58.22 150.3,58.22"
         style="fill:#ee4f9a;fill-opacity:1;fill-rule:nonzero;stroke:none"
         transform="matrix(0.13333333,0,0,-0.13333333,0,1706.6667)" />
      <path
         id="path83"
         d="m 11900.8,9028.96 c -83.3,-41.39 -140.4,-146.11 -174.2,-228.57 h -35.8 c 1.2,3.89 2.5,7.73 3.8,11.47 65,188.38 206.2,217.1 206.2,217.1"
         style="fill:#ee4f9a;fill-opacity:1;fill-rule:nonzero;stroke:none"
         transform="matrix(0.13333333,0,0,-0.13333333,0,1706.6667)" />
      <path
         id="path84"
         d="m 11883.6,8914.23 c -55.1,-23.51 -96,-69.79 -124.6,-114.84 -0.1,-0.1 -0.1,-0.17 -0.2,-0.27 h -50.3 c 17.7,25.05 37.4,44.72 57,60.2 59.6,47.14 118.1,54.91 118.1,54.91"
         style="fill:#ee4f9a;fill-opacity:1;fill-rule:nonzero;stroke:none"
         transform="matrix(0.13333333,0,0,-0.13333333,0,1706.6667)" />
      <path
         id="path85"
         d="m 11571.9,8799.16 h -36.7 c -15.1,24.9 -34.5,52.35 -57.5,75.5 -14.8,14.88 -31.1,27.93 -48.8,37.33 0,0 61.6,-3.93 115.9,-71.71 9.4,-11.68 18.6,-25.29 27.1,-41.12"
         style="fill:#ee4f9a;fill-opacity:1;fill-rule:nonzero;stroke:none"
         transform="matrix(0.13333333,0,0,-0.13333333,0,1706.6667)" />
      <path
         id="path86"
         d="m 11658.3,8799.16 h -49.9 c -2.4,15.86 -5,31.14 -7.7,45.85 -50.7,276.23 -141.8,353.49 -146.4,357.3 79.6,-51.34 129.9,-140.59 161.6,-230.36 9,-25.51 16.5,-51.08 22.8,-75.84 0.4,-1.68 0.8,-3.36 1.2,-5.04 8.1,-32.87 14,-64.18 18.4,-91.91"
         style="fill:#ee4f9a;fill-opacity:1;fill-rule:nonzero;stroke:none"
         transform="matrix(0.13333333,0,0,-0.13333333,0,1706.6667)" />
      <path
         id="path87"
         d="m 11618.3,8799.05 h -46.2 c -32.4,63.6 -78.9,128.3 -142.5,161.06 0,0 115.1,-13.54 188.7,-161.06"
         style="fill:#ee4f9a;fill-opacity:1;fill-rule:nonzero;stroke:none"
         transform="matrix(0.13333333,0,0,-0.13333333,0,1706.6667)" />
      <path
         id="path88"
         d="m 11942.3,9252.3 c 37.7,-35.91 66,-86.22 87.2,-142.15 7.8,-20.44 14.6,-41.65 20.6,-63.17 22.8,-82.14 33.4,-168.92 38.4,-236.41 0.3,-3.88 0.5,-7.72 0.8,-11.46 h 55.8 c -1.9,23.12 -4.3,45.1 -7.1,65.97 -10.4,77.21 -26.3,139.37 -44.7,189.34 -61,165.56 -149,197.18 -151,197.88"
         style="fill:#ee4f9a;fill-opacity:1;fill-rule:nonzero;stroke:none"
         transform="matrix(0.13333333,0,0,-0.13333333,0,1706.6667)" />
      <path
         id="path89"
         d="m 12221.7,8823.76 -5.9,-7.76 -10.3,-13.52 -2.6,-3.38 h -21.3 c 0.8,26.73 0.9,56.33 -0.2,87.12 0,1.82 -0.1,3.7 -0.2,5.51 -0.1,1.44 -0.1,2.88 -0.2,4.32 -0.1,2.75 -0.3,5.51 -0.4,8.32 -0.6,11.71 -1.4,23.54 -2.5,35.37 -0.3,3.69 -0.6,7.38 -1,11.08 -1.7,16.64 -3.8,33.29 -6.6,49.56 -8,48.13 -21,93.45 -41.5,128.69 -0.6,1 -1.2,2 -1.8,3 0,0 0.8,-0.63 2.4,-2 9.2,-8.45 44.1,-44.63 68.2,-129.69 2.5,-8.95 5,-18.4 7.2,-28.47 1,-4.07 1.8,-8.26 2.7,-12.52 0.1,-0.44 0.2,-0.94 0.3,-1.44 6.5,-32.11 11.2,-69.54 13.1,-112.97 0.2,-4.51 0.4,-9.01 0.5,-13.65 0.1,-2.5 0.1,-5 0.1,-7.57"
         style="fill:#ee4f9a;fill-opacity:1;fill-rule:nonzero;stroke:none"
         transform="matrix(0.13333333,0,0,-0.13333333,0,1706.6667)" />
      <path
         id="path90"
         d="m 12205.5,8802.48 -2.6,-3.38 h -59.3 c -2.7,14.4 -5.9,29.73 -9.9,45.63 -1.6,6.7 -3.5,13.45 -5.4,20.34 -0.8,3 -1.7,6.01 -2.6,9.01 -1.3,4.45 -2.7,8.95 -4.2,13.46 -2.9,9.39 -6.2,18.9 -9.7,28.48 -10.6,28.29 -23.6,56.89 -39.8,84.36 0,0.07 0,0.07 -0.1,0.13 -5.1,8.76 -10.6,17.34 -16.4,25.85 v 0.06 c 0,0 0,0.06 -0.1,0.06 -3.1,4.76 -6.5,9.33 -10,13.96 -1.6,2.19 -3.3,4.38 -5,6.57 -42.3,54.14 -100.2,99.33 -179.2,121.36 0,0 75.8,-1.13 158.6,-58.21 4.4,-3 8.9,-6.19 13.2,-9.57 10.4,-7.83 20.8,-16.52 31.1,-26.35 6.6,-6.2 13.1,-12.77 19.5,-19.84 2,-2.13 3.9,-4.32 5.9,-6.51 3.5,-4.07 7,-8.2 10.4,-12.52 l 0.1,-0.06 c 8.8,-10.77 17.3,-22.35 25.5,-34.93 11.4,-17.27 22.3,-36.36 32.3,-57.39 2.2,-4.5 4.4,-9.07 6.4,-13.77 3.8,-8.63 7.6,-17.52 11.2,-26.79 1.5,-3.75 2.8,-7.51 4.3,-11.39 0,-0.12 0,-0.25 0.1,-0.37 0.6,-1.5 1.1,-2.94 1.6,-4.45 9,-25.16 17.1,-52.57 23.8,-82.42 0.1,-0.44 0.1,-0.88 0.3,-1.32"
         style="fill:#ee4f9a;fill-opacity:1;fill-rule:nonzero;stroke:none"
         transform="matrix(0.13333333,0,0,-0.13333333,0,1706.6667)" />
      <path
         id="path91"
         d="m 11904.4,9028.9 c 87.9,-41.38 148.2,-146.11 183.8,-228.56 h 37.8 c -1.3,3.88 -2.6,7.72 -4,11.46 -68.6,188.38 -217.6,217.1 -217.6,217.1"
         style="fill:#ee4f9a;fill-opacity:1;fill-rule:nonzero;stroke:none"
         transform="matrix(0.13333333,0,0,-0.13333333,0,1706.6667)" />
      <path
         id="path92"
         d="m 11922.5,8914.18 c 58.2,-23.51 101.3,-69.79 131.5,-114.85 0.1,-0.1 0.2,-0.17 0.2,-0.26 h 53.2 c -18.8,25.04 -39.5,44.72 -60.2,60.19 -62.9,47.14 -124.7,54.92 -124.7,54.92"
         style="fill:#ee4f9a;fill-opacity:1;fill-rule:nonzero;stroke:none"
         transform="matrix(0.13333333,0,0,-0.13333333,0,1706.6667)" />
      <path
         id="path93"
         d="m 12375.6,9202.23 c -3.8,-3 -63,-50.51 -114.2,-201.85 -14.6,-42.99 -28.5,-94.32 -40.3,-155.4 -1.3,-6.64 -2.6,-13.4 -3.7,-20.28 -0.6,-2.88 -1.1,-5.76 -1.6,-8.7 l -10.3,-13.52 -2.6,-3.38 h -42.6 c 4.6,27.54 10.7,58.65 19.3,91.38 0,0.19 0,0.38 0.1,0.56 0.4,1.63 0.9,3.32 1.3,5.01 0.8,3.07 1.7,6.2 2.6,9.33 4.3,15.58 9.1,31.35 14.5,47.25 0.6,1.69 1.2,3.44 1.9,5.13 1.6,4.7 3.3,9.45 5,14.15 3.6,9.51 7.4,19.02 11.4,28.47 33.7,79.74 84,155.97 159.2,201.85"
         style="fill:#ee4f9a;fill-opacity:1;fill-rule:nonzero;stroke:none"
         transform="matrix(0.13333333,0,0,-0.13333333,0,1706.6667)" />
      <path
         id="path94"
         d="m 12277.8,8897.05 -56.1,-73.29 -5.9,-7.76 -10.3,-13.52 -2.6,-3.38 -0.1,-0.12 h -0.3 c 0,0.06 0.1,0.06 0.1,0.12 0.8,1.57 1.7,3.13 2.6,4.7 3.9,7.32 8,14.27 12.2,20.9 1.3,2.25 2.7,4.44 4.2,6.63 17.9,27.17 37.1,48.7 56.2,65.72"
         style="fill:#ee4f9a;fill-opacity:1;fill-rule:nonzero;stroke:none"
         transform="matrix(0.13333333,0,0,-0.13333333,0,1706.6667)" />
      <path
         id="path95"
         d="m 11752.7,9252.36 c 37.8,-35.92 66.1,-86.23 87.3,-142.15 7.7,-20.44 14.5,-41.65 20.5,-63.17 22.8,-82.15 33.5,-168.92 38.4,-236.41 0.3,-3.89 0.6,-7.73 0.8,-11.47 h 55.9 c -2,23.13 -4.3,45.1 -7.2,65.98 -10.3,77.2 -26.2,139.36 -44.7,189.34 -60.9,165.56 -149,197.18 -151,197.88"
         style="fill:#ee4f9a;fill-opacity:1;fill-rule:nonzero;stroke:none"
         transform="matrix(0.13333333,0,0,-0.13333333,0,1706.6667)" />
      <path
         id="path96"
         d="m 11937.7,9132.11 c 36.3,-60.31 50,-151.5 53.8,-236 0.1,-3.29 0.3,-6.57 0.4,-9.86 1.1,-30.76 0.9,-60.39 0.1,-87.09 h 40.5 c 0,6.31 -0.1,12.52 -0.2,18.62 -0.1,9.33 -0.4,18.4 -0.8,27.23 -2.1,49.9 -8.1,91.86 -16,126.94 -27.3,121.08 -77.8,160.16 -77.8,160.16"
         style="fill:#ee4f9a;fill-opacity:1;fill-rule:nonzero;stroke:none"
         transform="matrix(0.13333333,0,0,-0.13333333,0,1706.6667)" />
      <path
         id="path97"
         d="m 11671.7,9168.43 c 79,-22.04 136.8,-67.2 179.1,-121.39 43.9,-56.14 71.1,-122 88,-181.9 6.5,-23.18 11.5,-45.49 15.3,-65.98 h 62.6 c -7,31.67 -15.4,60.63 -24.8,87.09 -0.6,1.63 -1.2,3.24 -1.8,4.82 -26,71.18 -60,124.08 -96,163.41 -21,22.86 -42.6,41.14 -63.8,55.73 -82.8,57.12 -158.6,58.22 -158.6,58.22"
         style="fill:#ee4f9a;fill-opacity:1;fill-rule:nonzero;stroke:none"
         transform="matrix(0.13333333,0,0,-0.13333333,0,1706.6667)" />
      <path
         id="path98"
         d="m 11714.9,9028.96 c 87.8,-41.39 148.1,-146.11 183.8,-228.57 h 37.8 c -1.3,3.89 -2.7,7.73 -4.1,11.47 -68.6,188.38 -217.5,217.1 -217.5,217.1"
         style="fill:#ee4f9a;fill-opacity:1;fill-rule:nonzero;stroke:none"
         transform="matrix(0.13333333,0,0,-0.13333333,0,1706.6667)" />
      <path
         id="path99"
         d="m 11732.9,8914.23 c 58.2,-23.51 101.4,-69.79 131.6,-114.84 0.1,-0.1 0.1,-0.17 0.2,-0.27 h 53.1 c -18.7,25.05 -39.5,44.72 -60.1,60.2 -62.9,47.14 -124.8,54.91 -124.8,54.91"
         style="fill:#ee4f9a;fill-opacity:1;fill-rule:nonzero;stroke:none"
         transform="matrix(0.13333333,0,0,-0.13333333,0,1706.6667)" />
      <path
         id="path100"
         d="m 12061.9,8799.16 h 38.8 c 15.9,24.9 36.3,52.35 60.7,75.5 15.6,14.88 32.8,27.93 51.4,37.33 0,0 -65,-3.93 -122.3,-71.71 -9.9,-11.68 -19.6,-25.29 -28.6,-41.12"
         style="fill:#ee4f9a;fill-opacity:1;fill-rule:nonzero;stroke:none"
         transform="matrix(0.13333333,0,0,-0.13333333,0,1706.6667)" />
      <path
         id="path101"
         d="m 11970.8,8799.16 h 52.6 c 2.6,15.86 5.3,31.14 8.1,45.85 53.5,276.23 149.7,353.48 154.6,357.3 -84.1,-51.34 -137.2,-140.59 -170.6,-230.36 -9.5,-25.51 -17.4,-51.08 -24,-75.84 -0.5,-1.68 -0.9,-3.36 -1.4,-5.04 -8.5,-32.87 -14.8,-64.18 -19.3,-91.91"
         style="fill:#ee4f9a;fill-opacity:1;fill-rule:nonzero;stroke:none"
         transform="matrix(0.13333333,0,0,-0.13333333,0,1706.6667)" />
      <path
         id="path102"
         d="m 12013,8799.05 h 48.7 c 34.2,63.6 83.3,128.3 150.4,161.06 0,0 -121.5,-13.54 -199.1,-161.06"
         style="fill:#ee4f9a;fill-opacity:1;fill-rule:nonzero;stroke:none"
         transform="matrix(0.13333333,0,0,-0.13333333,0,1706.6667)" />
      <path
         id="path103"
         d="m 10378.3,9517.63 c 0,0 -572.14,128.36 -1280.19,-18.38 0,0 -752.02,-210.39 -897.53,-310.66 0,0 694.1,155.77 970.65,139.05 0,0 244.35,27.36 581.63,-64.19 0,0 -114.57,72.86 -423.27,117.91 0,0 365.64,132.4 1048.71,136.27"
         style="fill:url(#linearGradient104);fill-opacity:1;fill-rule:nonzero;stroke:none"
         transform="matrix(0.13333333,0,0,-0.13333333,0,1706.6667)"
         clip-path="url(#clipPath104)" />
      <path
         id="path105"
         d="m 8193.26,9207.32 c 0,0 345.77,302.95 523.98,393.64 178.21,90.69 352.3,144.45 505.29,170.93 0,0 -549.88,-229.75 -697.13,-354.83 0,0 -288.04,-185.4 -332.14,-209.74"
         style="fill:url(#linearGradient106);fill-opacity:1;fill-rule:nonzero;stroke:none"
         transform="matrix(0.13333333,0,0,-0.13333333,0,1706.6667)"
         clip-path="url(#clipPath106)" />
      <path
         id="path107"
         d="m 9287.28,9166.45 c 0,0 -352.37,78.8 -1065.51,17.97 0,0 648.15,145.95 1065.51,-17.97"
         style="fill:url(#linearGradient108);fill-opacity:1;fill-rule:nonzero;stroke:none"
         transform="matrix(0.13333333,0,0,-0.13333333,0,1706.6667)"
         clip-path="url(#clipPath108)" />
      <path
         id="path109"
         d="m 9921.35,9767.94 c 0,0 -314.85,77.71 -771.66,-118.49 0,0 -282.82,-110.96 -385.59,-137.89 0,0 362.21,67.04 548.36,134.15 186.14,67.11 519.42,98.97 608.89,122.23"
         style="fill:url(#linearGradient110);fill-opacity:1;fill-rule:nonzero;stroke:none"
         transform="matrix(0.13333333,0,0,-0.13333333,0,1706.6667)"
         clip-path="url(#clipPath110)" />
      <path
         id="path111"
         d="m 9984.92,9755.43 c 0,0 149.28,39.78 185.08,29.6 35.7,-10.18 18.9,-63.47 -21.6,-61.78 -40.6,1.69 -163.48,32.18 -163.48,32.18"
         style="fill:url(#linearGradient112);fill-opacity:1;fill-rule:nonzero;stroke:none"
         transform="matrix(0.13333333,0,0,-0.13333333,0,1706.6667)"
         clip-path="url(#clipPath112)" />
      <path
         id="path113"
         d="m 10375.3,9710.02 c 0,0 113.1,-0.27 143.5,-37.69 30.4,-37.42 -71.3,-42.56 -101,-2.11 -29.8,40.44 -42.5,39.8 -42.5,39.8"
         style="fill:url(#linearGradient114);fill-opacity:1;fill-rule:nonzero;stroke:none"
         transform="matrix(0.13333333,0,0,-0.13333333,0,1706.6667)"
         clip-path="url(#clipPath114)" />
      <path
         id="path115"
         d="m 10771.8,9440.16 c 0,0 93.2,-5.77 115.7,-51.08 22.5,-45.31 -51.3,-21.33 -64.1,-6.24 -12.8,15.09 -51.6,57.32 -51.6,57.32"
         style="fill:url(#linearGradient116);fill-opacity:1;fill-rule:nonzero;stroke:none"
         transform="matrix(0.13333333,0,0,-0.13333333,0,1706.6667)"
         clip-path="url(#clipPath116)" />
      <path
         id="path117"
         d="m 10420.8,9462.09 c 0,0 163.4,-16.44 176.8,-44.24 13.4,-27.79 -21,-58.75 -63.4,-34.67 -42.4,24.07 -113.4,78.91 -113.4,78.91"
         style="fill:url(#linearGradient118);fill-opacity:1;fill-rule:nonzero;stroke:none"
         transform="matrix(0.13333333,0,0,-0.13333333,0,1706.6667)"
         clip-path="url(#clipPath118)" />
      <path
         id="path119"
         d="m 10110,9416.39 c 0,0 96,40.82 148.1,17.99 0,0 17.7,-38.07 -18,-43.62 -35.7,-5.55 -55.7,20.4 -130.1,25.63"
         style="fill:url(#linearGradient120);fill-opacity:1;fill-rule:nonzero;stroke:none"
         transform="matrix(0.13333333,0,0,-0.13333333,0,1706.6667)"
         clip-path="url(#clipPath120)" />
      <path
         id="path121"
         d="m 9887.05,9306.2 c 0,0 152.45,7.72 172.55,-33.96 20.1,-41.69 -38,-49.12 -73.76,-23.22 -35.78,25.91 -98.79,57.18 -98.79,57.18"
         style="fill:url(#linearGradient122);fill-opacity:1;fill-rule:nonzero;stroke:none"
         transform="matrix(0.13333333,0,0,-0.13333333,0,1706.6667)"
         clip-path="url(#clipPath122)" />
      <path
         id="path123"
         d="m 9779.1,9189.11 c 0,0 113.78,-12.97 95.12,-43.88 -18.66,-30.92 -95.12,43.88 -95.12,43.88"
         style="fill:url(#linearGradient124);fill-opacity:1;fill-rule:nonzero;stroke:none"
         transform="matrix(0.13333333,0,0,-0.13333333,0,1706.6667)"
         clip-path="url(#clipPath124)" />
      <path
         id="path125"
         d="m 9431.83,9182.01 c 0,0 130.71,-6.86 157.4,-30.99 26.7,-24.12 -17.32,-72.05 -60.99,-38.3 -43.66,33.75 -96.41,69.29 -96.41,69.29"
         style="fill:url(#linearGradient126);fill-opacity:1;fill-rule:nonzero;stroke:none"
         transform="matrix(0.13333333,0,0,-0.13333333,0,1706.6667)"
         clip-path="url(#clipPath126)" />
      <path
         id="path127"
         d="m 10230.7,9119.08 c 0,0 95.5,6.33 102.9,-20.27 7.3,-26.6 -38.6,-36.41 -55.1,-8.03 l -47.8,28.3"
         style="fill:url(#linearGradient128);fill-opacity:1;fill-rule:nonzero;stroke:none"
         transform="matrix(0.13333333,0,0,-0.13333333,0,1706.6667)"
         clip-path="url(#clipPath128)" />
      <path
         id="path129"
         d="m 10437.9,9213.48 c 0,0 170,1.12 178.6,-50.89 0,0 -2.2,-43.57 -78,-12.94 -75.7,30.63 -100.6,63.83 -100.6,63.83"
         style="fill:url(#linearGradient130);fill-opacity:1;fill-rule:nonzero;stroke:none"
         transform="matrix(0.13333333,0,0,-0.13333333,0,1706.6667)"
         clip-path="url(#clipPath130)" />
      <path
         id="path131"
         d="m 10616.2,9080.91 c 0,0 117.3,5.19 130.1,-25.62 12.8,-30.82 -22.8,-36.38 -53.2,-14.69 -30.3,21.69 -76.9,40.31 -76.9,40.31"
         style="fill:url(#linearGradient132);fill-opacity:1;fill-rule:nonzero;stroke:none"
         transform="matrix(0.13333333,0,0,-0.13333333,0,1706.6667)"
         clip-path="url(#clipPath132)" />
      <path
         id="path133"
         d="m 11165.1,9218.09 c 0,0 112,-6.32 121.8,-36.54 9.7,-30.22 -44.2,-16.47 -64.2,-6.24 -20,10.22 -57.6,42.78 -57.6,42.78"
         style="fill:url(#linearGradient134);fill-opacity:1;fill-rule:nonzero;stroke:none"
         transform="matrix(0.13333333,0,0,-0.13333333,0,1706.6667)"
         clip-path="url(#clipPath134)" />
      <path
         id="path135"
         d="m 10813.7,9604.85 c 0,0 151.8,4.7 169.5,-33.37 17.6,-38.06 -62.3,-28.62 -90.2,-10.55 -27.8,18.06 -79.3,43.92 -79.3,43.92"
         style="fill:url(#linearGradient136);fill-opacity:1;fill-rule:nonzero;stroke:none"
         transform="matrix(0.13333333,0,0,-0.13333333,0,1706.6667)"
         clip-path="url(#clipPath136)" />
      <path
         id="path137"
         d="m 9347.57,9840.03 c 0,0 132.85,83.89 160.14,62.8 27.29,-21.09 -7.7,-55.08 -83.92,-58.94 -76.22,-3.86 -76.22,-3.86 -76.22,-3.86"
         style="fill:url(#linearGradient138);fill-opacity:1;fill-rule:nonzero;stroke:none"
         transform="matrix(0.13333333,0,0,-0.13333333,0,1706.6667)"
         clip-path="url(#clipPath138)" />
      <path
         id="path139"
         d="m 10883.3,9176.1 c 0,0 105.3,7.58 130.2,-25.63 24.9,-33.2 -35.7,-21.28 -67.2,-5.64 -31.5,15.63 -63,31.27 -63,31.27"
         style="fill:url(#linearGradient140);fill-opacity:1;fill-rule:nonzero;stroke:none"
         transform="matrix(0.13333333,0,0,-0.13333333,0,1706.6667)"
         clip-path="url(#clipPath140)" />
      <path
         id="path141"
         d="m 11760.8,8238.09 h -930 c -122.7,0 -181.5,33.2 -181.5,120.1 0,86.9 58.8,117.5 181.5,117.5 h 1185.6 l 339.8,444.6 h -1484.6 c -9.6,0 -19.1,-0.1 -28.4,-0.3 -4.1,0 -8.2,-0.1 -12.3,-0.2 -9.1,-0.1 -18.1,-0.4 -27,-0.8 -4.7,-0.1 -9.3,-0.3 -13.9,-0.6 -1.1,0 -2.2,0 -3.2,-0.1 h -0.5 c -5.1,-0.3 -10.2,-0.5 -15.3,-0.8 -6.6,-0.4 -13.1,-0.8 -19.5,-1.3 -3.2,-0.2 -6.4,-0.4 -9.6,-0.7 -2.6,-0.2 -5.2,-0.4 -7.8,-0.6 -7.1,-0.6 -14.2,-1.2 -21.2,-1.9 -3.9,-0.4 -7.7,-0.8 -11.5,-1.2 -3.2,-0.3 -6.3,-0.7 -9.4,-1 -6.1,-0.7 -12.1,-1.5 -18.1,-2.3 -4.3,-0.5 -8.5,-1 -12.7,-1.7 -0.6,0 -1.1,-0.1 -1.6,-0.2 -3.5,-0.4 -7,-0.9 -10.4,-1.5 -5.9,-0.8 -11.7,-1.7 -17.4,-2.7 -5.8,-0.9 -11.5,-1.9 -17.1,-3 -2.7,-0.4 -5.4,-0.9 -8,-1.5 -2.3,-0.4 -4.6,-0.8 -6.9,-1.3 -10.1,-1.9 -19.9,-4 -29.6,-6.3 -0.9,-0.1 -1.8,-0.3 -2.7,-0.6 -4.4,-0.9 -8.7,-2 -13,-3 -13.1,-3.2 -25.8,-6.6 -38.2,-10.3 -1.3,-0.4 -2.5,-0.7 -3.7,-1.1 -10.3,-3.1 -20.4,-6.3 -30.2,-9.7 -239.5,-82.1 -344.1,-252 -344.1,-476.7 0,-293.9 201.9,-490.6 641.4,-490.6 h 930 c 125.2,0 181.4,-35.8 181.4,-122.7 0,-89.4 -56.2,-125.2 -181.4,-125.2 l -1624.1,-27.8 v 1150.79 c -4.2,8.9 -8.6,17.4 -13.4,25.6 h -0.1 c 0,0.01 0,0.01 0,0.01 -57.8,100.5 -154.17,149.5 -260.37,149.5 -138,0 -230,-71.5 -291.3,-181.4 l -273.4,-485.5 c -150.7,-263.2 -217.2,-388.4 -273.4,-508.5 -58.8,120.1 -125.2,247.9 -276,511.1 l -273.4,482.9 c -40.6,74.4 -94.5,129.7 -165.7,158.7 -11.4,4.6 -23.2,8.6 -35.6,11.8 -19.9,5.3 -41,8.7 -63.4,10.1 -7.9,0.5 -15.8,0.8 -24,0.8 -40.4,0 -79.6,-7.1 -115.9,-21.5 -59.2,-23.3 -110.6,-65.8 -146.8,-128 v -1588 h 0.03 v -0.01 h 506.1 v 690.36 c 15.59,-29.48 32.38,-61.07 50.47,-95.05 l 229.9,-431.8 c 47.4,-89.2 94,-137.7 146.3,-163.5 46.6,-23 97.6,-28.1 157.8,-28.1 60.2,0 111.2,5.1 157.8,28.1 52.3,25.8 98.9,74.3 146.2,163.5 l 230,429.3 c 30.7,58 57.7,109.7 81.9,156.7 0.01,0.02 0.02,0.03 0.03,0.05 v -749.56 h 298.87 v -0.09 h 1790.67 c 521.2,0 733.3,209.6 733.3,559.6 0,311.7 -224.9,467.6 -641.4,467.6"
         style="fill:#ee4f9a;fill-opacity:1;fill-rule:nonzero;stroke:none"
         transform="matrix(0.13333333,0,0,-0.13333333,0,1706.6667)" />
    </g>
  </g>
</svg>
